<svg xmlns="http://www.w3.org/2000/svg" xmlns:xlink="http://www.w3.org/1999/xlink" width="500" zoomAndPan="magnify" viewBox="0 0 375 374.999991" height="500" preserveAspectRatio="xMidYMid meet" version="1.0"><defs><clipPath id="aef31664d5"><path d="M 87.699219 85.730469 L 294.617188 85.730469 L 294.617188 288.980469 L 87.699219 288.980469 Z M 87.699219 85.730469 " clip-rule="nonzero"/></clipPath><clipPath id="2fb0d04e4a"><path d="M 268.34375 262.753906 C 270.152344 262.753906 271.625 264.226562 271.625 266.03125 C 271.625 267.835938 270.152344 269.308594 268.34375 269.308594 C 266.53125 269.308594 265.058594 267.835938 265.058594 266.03125 C 265.058594 264.226562 266.53125 262.753906 268.34375 262.753906 Z M 268.34375 275.867188 C 273.78125 275.867188 278.195312 271.460938 278.195312 266.03125 C 278.195312 260.601562 273.78125 256.195312 268.34375 256.195312 C 262.902344 256.195312 258.488281 260.601562 258.488281 266.03125 C 258.488281 271.460938 262.902344 275.867188 268.34375 275.867188 Z M 110.6875 111.953125 C 108.878906 111.953125 107.40625 110.480469 107.40625 108.675781 C 107.40625 106.871094 108.878906 105.398438 110.6875 105.398438 C 112.5 105.398438 113.972656 106.871094 113.972656 108.675781 C 113.972656 110.480469 112.5 111.953125 110.6875 111.953125 Z M 110.6875 98.84375 C 105.25 98.84375 100.835938 103.246094 100.835938 108.675781 C 100.835938 114.105469 105.25 118.511719 110.6875 118.511719 C 116.128906 118.511719 120.542969 114.105469 120.542969 108.675781 C 120.542969 103.246094 116.128906 98.84375 110.6875 98.84375 Z M 277.988281 157.785156 C 276.785156 147.195312 269.945312 138.296875 260.542969 134.148438 C 265.277344 130.546875 268.34375 124.886719 268.34375 118.511719 C 268.34375 107.664062 259.503906 98.84375 248.636719 98.84375 C 237.769531 98.84375 228.929688 107.664062 228.929688 118.511719 C 228.929688 124.886719 231.996094 130.546875 236.730469 134.148438 C 227.324219 138.296875 220.488281 147.195312 219.28125 157.785156 C 213.046875 150.820312 209.222656 141.675781 209.222656 131.625 C 209.222656 109.929688 226.902344 92.285156 248.636719 92.285156 C 270.367188 92.285156 288.046875 109.929688 288.046875 131.625 C 288.046875 141.675781 284.226562 150.820312 277.988281 157.785156 Z M 255.039062 184.074219 L 222.269531 184.074219 C 222.050781 178.570312 221.269531 173.023438 219.960938 167.441406 C 227.824219 173.730469 237.792969 177.519531 248.636719 177.519531 C 250.574219 177.519531 252.457031 177.367188 254.320312 177.136719 C 254.691406 179.425781 254.921875 181.746094 255.039062 184.074219 Z M 268.34375 249.640625 C 277.398438 249.640625 284.765625 256.992188 284.765625 266.03125 C 284.765625 275.074219 277.398438 282.421875 268.34375 282.421875 C 259.285156 282.421875 251.917969 275.074219 251.917969 266.03125 C 251.917969 256.992188 259.285156 249.640625 268.34375 249.640625 Z M 197.214844 252.433594 C 202.074219 246.453125 209.234375 236.335938 214.675781 223.414062 L 244.3125 223.414062 C 233.894531 239.140625 216.867188 250.128906 197.214844 252.433594 Z M 179.226562 249.050781 C 180.175781 250.304688 181.0625 251.445312 181.894531 252.46875 C 180.84375 252.34375 179.804688 252.214844 178.765625 252.035156 C 178.96875 251.0625 179.097656 250.050781 179.226562 249.050781 Z M 133.679688 282.421875 C 111.945312 282.421875 94.265625 264.777344 94.265625 243.082031 C 94.265625 221.390625 111.945312 203.746094 133.679688 203.746094 C 155.414062 203.746094 173.09375 221.390625 173.09375 243.082031 C 173.09375 264.777344 155.414062 282.421875 133.679688 282.421875 Z M 123.917969 190.632812 L 156.800781 190.632812 C 156.980469 195.230469 157.554688 199.851562 158.492188 204.511719 C 151.332031 199.902344 142.828125 197.1875 133.679688 197.1875 C 130.613281 197.1875 127.613281 197.507812 124.710938 198.085938 C 124.300781 195.625 124.042969 193.128906 123.917969 190.632812 Z M 110.6875 125.066406 C 101.632812 125.066406 94.265625 117.71875 94.265625 108.675781 C 94.265625 99.636719 101.632812 92.285156 110.6875 92.285156 C 119.746094 92.285156 127.109375 99.636719 127.109375 108.675781 C 127.109375 117.71875 119.746094 125.066406 110.6875 125.066406 Z M 181.816406 122.277344 C 176.957031 128.257812 169.796875 138.371094 164.355469 151.292969 L 134.71875 151.292969 C 145.136719 135.570312 162.164062 124.582031 181.816406 122.277344 Z M 202.757812 129.730469 C 200.714844 126.796875 198.816406 124.285156 197.175781 122.25 C 199.277344 122.492188 201.371094 122.851562 203.449219 123.300781 C 203.0625 125.386719 202.832031 127.539062 202.757812 129.730469 Z M 171.605469 151.292969 C 177.777344 137.769531 185.679688 127.78125 189.527344 123.378906 C 192.914062 127.269531 199.457031 135.414062 205.140625 146.425781 L 205.15625 146.414062 C 205.71875 148.09375 206.398438 149.71875 207.15625 151.292969 Z M 163.394531 184.074219 C 163.804688 174.613281 165.933594 165.765625 168.898438 157.851562 L 210.183594 157.851562 C 213.46875 166.648438 215.328125 175.445312 215.703125 184.074219 Z M 123.992188 184.074219 C 124.46875 174.675781 126.894531 165.800781 130.933594 157.851562 L 161.839844 157.851562 C 159.097656 165.800781 157.183594 174.625 156.8125 184.074219 Z M 179.316406 237.65625 C 178.710938 232.609375 177.277344 227.832031 175.160156 223.414062 L 207.425781 223.414062 C 201.253906 236.949219 193.351562 246.925781 189.503906 251.332031 C 187.15625 248.65625 183.320312 243.917969 179.316406 237.65625 Z M 210.132812 216.859375 L 171.359375 216.859375 C 170.050781 214.988281 168.601562 213.246094 167.039062 211.59375 C 164.871094 204.566406 163.675781 197.535156 163.367188 190.632812 L 215.636719 190.632812 C 215.226562 200.09375 213.097656 208.945312 210.132812 216.859375 Z M 255.039062 190.632812 C 254.5625 200.03125 252.136719 208.90625 248.097656 216.859375 L 217.1875 216.859375 C 219.933594 208.90625 221.847656 200.082031 222.21875 190.632812 Z M 230.777344 146.710938 L 240.117188 170.015625 C 234.804688 168.835938 229.917969 166.582031 225.644531 163.511719 L 225.644531 161.128906 C 225.644531 155.671875 227.570312 150.652344 230.777344 146.710938 Z M 239.027344 140.304688 C 239.679688 143.25 241.667969 145.671875 244.3125 146.976562 L 241.285156 155.261719 L 235.972656 141.996094 C 236.933594 141.355469 237.960938 140.792969 239.027344 140.304688 Z M 255.988281 155.25 L 252.960938 146.976562 C 255.601562 145.671875 257.589844 143.25 258.246094 140.304688 C 259.308594 140.792969 260.335938 141.355469 261.296875 141.996094 Z M 248.636719 138.179688 C 249.738281 138.179688 250.804688 138.28125 251.867188 138.4375 C 251.726562 140.113281 250.355469 141.457031 248.636719 141.457031 C 246.917969 141.457031 245.542969 140.113281 245.402344 138.4375 C 246.46875 138.28125 247.53125 138.179688 248.636719 138.179688 Z M 247.558594 170.910156 L 244.941406 164.394531 L 248.648438 154.277344 L 252.34375 164.355469 L 249.714844 170.910156 C 249.355469 170.910156 248.996094 170.964844 248.636719 170.964844 C 248.277344 170.964844 247.917969 170.910156 247.558594 170.910156 Z M 271.625 163.511719 C 267.355469 166.582031 262.464844 168.835938 257.15625 170.015625 L 266.496094 146.710938 C 269.703125 150.652344 271.625 155.671875 271.625 161.128906 Z M 235.496094 118.511719 C 235.496094 111.277344 241.386719 105.398438 248.636719 105.398438 C 255.882812 105.398438 261.773438 111.277344 261.773438 118.511719 C 261.773438 125.746094 255.882812 131.625 248.636719 131.625 C 241.386719 131.625 235.496094 125.746094 235.496094 118.511719 Z M 281.480469 200.46875 C 283.289062 200.46875 284.765625 201.941406 284.765625 203.746094 C 284.765625 205.550781 283.289062 207.023438 281.480469 207.023438 C 279.671875 207.023438 278.195312 205.550781 278.195312 203.746094 C 278.195312 201.941406 279.671875 200.46875 281.480469 200.46875 Z M 209.222656 282.421875 C 207.414062 282.421875 205.9375 280.949219 205.9375 279.144531 C 205.9375 277.339844 207.414062 275.867188 209.222656 275.867188 C 211.03125 275.867188 212.507812 277.339844 212.507812 279.144531 C 212.507812 280.949219 211.03125 282.421875 209.222656 282.421875 Z M 97.550781 170.964844 C 95.742188 170.964844 94.265625 169.492188 94.265625 167.683594 C 94.265625 165.878906 95.742188 164.40625 97.550781 164.40625 C 99.359375 164.40625 100.835938 165.878906 100.835938 167.683594 C 100.835938 169.492188 99.359375 170.964844 97.550781 170.964844 Z M 173.09375 92.285156 C 174.902344 92.285156 176.378906 93.757812 176.378906 95.5625 C 176.378906 97.371094 174.902344 98.84375 173.09375 98.84375 C 171.285156 98.84375 169.808594 97.371094 169.808594 95.5625 C 169.808594 93.757812 171.285156 92.285156 173.09375 92.285156 Z M 248.636719 85.730469 C 228.429688 85.730469 211.25 98.828125 205.105469 116.949219 C 200.011719 115.835938 194.777344 115.234375 189.515625 115.234375 C 186.011719 115.234375 182.585938 115.503906 179.214844 115.976562 L 176.941406 104.617188 C 180.46875 103.117188 182.945312 99.625 182.945312 95.5625 C 182.945312 90.132812 178.53125 85.730469 173.09375 85.730469 C 167.652344 85.730469 163.238281 90.132812 163.238281 95.5625 C 163.238281 100.019531 166.242188 103.746094 170.308594 104.949219 L 172.773438 117.207031 C 160.660156 120.085938 149.71875 126.003906 140.828125 134.121094 L 129.074219 122.390625 C 131.949219 118.5625 133.679688 113.824219 133.679688 108.675781 C 133.679688 96.023438 123.363281 85.730469 110.6875 85.730469 C 98.011719 85.730469 87.699219 96.023438 87.699219 108.675781 C 87.699219 121.328125 98.011719 131.625 110.6875 131.625 C 115.847656 131.625 120.59375 129.894531 124.429688 127.027344 L 136.183594 138.757812 C 128.753906 146.863281 123.171875 156.683594 120.054688 167.519531 L 106.957031 164.90625 C 105.75 160.847656 102.015625 157.851562 97.550781 157.851562 C 92.113281 157.851562 87.699219 162.253906 87.699219 167.683594 C 87.699219 173.113281 92.113281 177.519531 97.550781 177.519531 C 101.617188 177.519531 105.121094 175.046875 106.621094 171.527344 L 118.539062 173.910156 C 117.707031 178.261719 117.257812 182.757812 117.257812 187.355469 C 117.257812 191.554688 117.644531 195.753906 118.359375 199.863281 C 100.527344 206.179688 87.699219 223.144531 87.699219 243.082031 C 87.699219 268.386719 108.328125 288.980469 133.679688 288.980469 C 153.65625 288.980469 170.65625 276.171875 176.980469 258.375 C 181.113281 259.089844 185.308594 259.476562 189.515625 259.476562 C 194.121094 259.476562 198.625 259.027344 202.988281 258.195312 L 205.375 270.089844 C 201.84375 271.589844 199.367188 275.085938 199.367188 279.144531 C 199.367188 284.574219 203.78125 288.980469 209.222656 288.980469 C 214.660156 288.980469 219.074219 284.574219 219.074219 279.144531 C 219.074219 274.6875 216.074219 270.960938 212.007812 269.757812 L 209.375 256.683594 C 220.242188 253.570312 230.082031 248 238.203125 240.585938 L 249.957031 252.316406 C 247.082031 256.144531 245.351562 260.882812 245.351562 266.03125 C 245.351562 278.683594 255.667969 288.980469 268.34375 288.980469 C 281.019531 288.980469 291.332031 278.683594 291.332031 266.03125 C 291.332031 253.378906 281.019531 243.082031 268.34375 243.082031 C 263.183594 243.082031 258.4375 244.8125 254.601562 247.679688 L 242.847656 235.953125 C 250.984375 227.0625 256.910156 216.152344 259.796875 204.066406 L 272.074219 206.523438 C 273.28125 210.582031 277.015625 213.578125 281.480469 213.578125 C 286.917969 213.578125 291.332031 209.175781 291.332031 203.746094 C 291.332031 198.316406 286.917969 193.910156 281.480469 193.910156 C 277.414062 193.910156 273.910156 196.382812 272.410156 199.902344 L 261.027344 197.636719 C 261.503906 194.269531 261.773438 190.851562 261.773438 187.355469 C 261.773438 183.488281 261.375 179.644531 260.773438 175.84375 C 280.246094 170.515625 294.617188 152.742188 294.617188 131.625 C 294.617188 106.320312 273.988281 85.730469 248.636719 85.730469 Z M 110.6875 262.753906 L 110.6875 235.273438 L 130.394531 245.105469 L 130.394531 249.640625 L 136.964844 249.640625 L 136.964844 245.105469 L 156.671875 235.273438 L 156.671875 262.753906 Z M 123.828125 216.859375 L 143.535156 216.859375 L 143.535156 223.414062 L 123.828125 223.414062 Z M 133.679688 239.421875 L 114.757812 229.972656 L 152.617188 229.972656 Z M 156.671875 223.414062 L 150.101562 223.414062 L 150.101562 216.859375 C 150.101562 213.246094 147.152344 210.300781 143.535156 210.300781 L 123.828125 210.300781 C 120.207031 210.300781 117.257812 213.246094 117.257812 216.859375 L 117.257812 223.414062 L 110.6875 223.414062 C 107.070312 223.414062 104.121094 226.359375 104.121094 229.972656 L 104.121094 262.753906 C 104.121094 266.363281 107.070312 269.308594 110.6875 269.308594 L 156.671875 269.308594 C 160.289062 269.308594 163.238281 266.363281 163.238281 262.753906 L 163.238281 229.972656 C 163.238281 226.359375 160.289062 223.414062 156.671875 223.414062 Z M 156.671875 223.414062 " clip-rule="nonzero"/></clipPath><clipPath id="9b9695437a"><path d="M 268.34375 262.753906 C 270.152344 262.753906 271.625 264.226562 271.625 266.03125 C 271.625 267.835938 270.152344 269.308594 268.34375 269.308594 C 266.53125 269.308594 265.058594 267.835938 265.058594 266.03125 C 265.058594 264.226562 266.53125 262.753906 268.34375 262.753906 Z M 268.34375 275.867188 C 273.78125 275.867188 278.195312 271.460938 278.195312 266.03125 C 278.195312 260.601562 273.78125 256.195312 268.34375 256.195312 C 262.902344 256.195312 258.488281 260.601562 258.488281 266.03125 C 258.488281 271.460938 262.902344 275.867188 268.34375 275.867188 Z M 110.6875 111.953125 C 108.878906 111.953125 107.40625 110.480469 107.40625 108.675781 C 107.40625 106.871094 108.878906 105.398438 110.6875 105.398438 C 112.5 105.398438 113.972656 106.871094 113.972656 108.675781 C 113.972656 110.480469 112.5 111.953125 110.6875 111.953125 Z M 110.6875 98.84375 C 105.25 98.84375 100.835938 103.246094 100.835938 108.675781 C 100.835938 114.105469 105.25 118.511719 110.6875 118.511719 C 116.128906 118.511719 120.542969 114.105469 120.542969 108.675781 C 120.542969 103.246094 116.128906 98.84375 110.6875 98.84375 Z M 277.988281 157.785156 C 276.785156 147.195312 269.945312 138.296875 260.542969 134.148438 C 265.277344 130.546875 268.34375 124.886719 268.34375 118.511719 C 268.34375 107.664062 259.503906 98.84375 248.636719 98.84375 C 237.769531 98.84375 228.929688 107.664062 228.929688 118.511719 C 228.929688 124.886719 231.996094 130.546875 236.730469 134.148438 C 227.324219 138.296875 220.488281 147.195312 219.28125 157.785156 C 213.046875 150.820312 209.222656 141.675781 209.222656 131.625 C 209.222656 109.929688 226.902344 92.285156 248.636719 92.285156 C 270.367188 92.285156 288.046875 109.929688 288.046875 131.625 C 288.046875 141.675781 284.226562 150.820312 277.988281 157.785156 Z M 255.039062 184.074219 L 222.269531 184.074219 C 222.050781 178.570312 221.269531 173.023438 219.960938 167.441406 C 227.824219 173.730469 237.792969 177.519531 248.636719 177.519531 C 250.574219 177.519531 252.457031 177.367188 254.320312 177.136719 C 254.691406 179.425781 254.921875 181.746094 255.039062 184.074219 Z M 268.34375 249.640625 C 277.398438 249.640625 284.765625 256.992188 284.765625 266.03125 C 284.765625 275.074219 277.398438 282.421875 268.34375 282.421875 C 259.285156 282.421875 251.917969 275.074219 251.917969 266.03125 C 251.917969 256.992188 259.285156 249.640625 268.34375 249.640625 Z M 197.214844 252.433594 C 202.074219 246.453125 209.234375 236.335938 214.675781 223.414062 L 244.3125 223.414062 C 233.894531 239.140625 216.867188 250.128906 197.214844 252.433594 Z M 179.226562 249.050781 C 180.175781 250.304688 181.0625 251.445312 181.894531 252.46875 C 180.84375 252.34375 179.804688 252.214844 178.765625 252.035156 C 178.96875 251.0625 179.097656 250.050781 179.226562 249.050781 Z M 133.679688 282.421875 C 111.945312 282.421875 94.265625 264.777344 94.265625 243.082031 C 94.265625 221.390625 111.945312 203.746094 133.679688 203.746094 C 155.414062 203.746094 173.09375 221.390625 173.09375 243.082031 C 173.09375 264.777344 155.414062 282.421875 133.679688 282.421875 Z M 123.917969 190.632812 L 156.800781 190.632812 C 156.980469 195.230469 157.554688 199.851562 158.492188 204.511719 C 151.332031 199.902344 142.828125 197.1875 133.679688 197.1875 C 130.613281 197.1875 127.613281 197.507812 124.710938 198.085938 C 124.300781 195.625 124.042969 193.128906 123.917969 190.632812 Z M 110.6875 125.066406 C 101.632812 125.066406 94.265625 117.71875 94.265625 108.675781 C 94.265625 99.636719 101.632812 92.285156 110.6875 92.285156 C 119.746094 92.285156 127.109375 99.636719 127.109375 108.675781 C 127.109375 117.71875 119.746094 125.066406 110.6875 125.066406 Z M 181.816406 122.277344 C 176.957031 128.257812 169.796875 138.371094 164.355469 151.292969 L 134.71875 151.292969 C 145.136719 135.570312 162.164062 124.582031 181.816406 122.277344 Z M 202.757812 129.730469 C 200.714844 126.796875 198.816406 124.285156 197.175781 122.25 C 199.277344 122.492188 201.371094 122.851562 203.449219 123.300781 C 203.0625 125.386719 202.832031 127.539062 202.757812 129.730469 Z M 171.605469 151.292969 C 177.777344 137.769531 185.679688 127.78125 189.527344 123.378906 C 192.914062 127.269531 199.457031 135.414062 205.140625 146.425781 L 205.15625 146.414062 C 205.71875 148.09375 206.398438 149.71875 207.15625 151.292969 Z M 163.394531 184.074219 C 163.804688 174.613281 165.933594 165.765625 168.898438 157.851562 L 210.183594 157.851562 C 213.46875 166.648438 215.328125 175.445312 215.703125 184.074219 Z M 123.992188 184.074219 C 124.46875 174.675781 126.894531 165.800781 130.933594 157.851562 L 161.839844 157.851562 C 159.097656 165.800781 157.183594 174.625 156.8125 184.074219 Z M 179.316406 237.65625 C 178.710938 232.609375 177.277344 227.832031 175.160156 223.414062 L 207.425781 223.414062 C 201.253906 236.949219 193.351562 246.925781 189.503906 251.332031 C 187.15625 248.65625 183.320312 243.917969 179.316406 237.65625 Z M 210.132812 216.859375 L 171.359375 216.859375 C 170.050781 214.988281 168.601562 213.246094 167.039062 211.59375 C 164.871094 204.566406 163.675781 197.535156 163.367188 190.632812 L 215.636719 190.632812 C 215.226562 200.09375 213.097656 208.945312 210.132812 216.859375 Z M 255.039062 190.632812 C 254.5625 200.03125 252.136719 208.90625 248.097656 216.859375 L 217.1875 216.859375 C 219.933594 208.90625 221.847656 200.082031 222.21875 190.632812 Z M 230.777344 146.710938 L 240.117188 170.015625 C 234.804688 168.835938 229.917969 166.582031 225.644531 163.511719 L 225.644531 161.128906 C 225.644531 155.671875 227.570312 150.652344 230.777344 146.710938 Z M 239.027344 140.304688 C 239.679688 143.25 241.667969 145.671875 244.3125 146.976562 L 241.285156 155.261719 L 235.972656 141.996094 C 236.933594 141.355469 237.960938 140.792969 239.027344 140.304688 Z M 255.988281 155.25 L 252.960938 146.976562 C 255.601562 145.671875 257.589844 143.25 258.246094 140.304688 C 259.308594 140.792969 260.335938 141.355469 261.296875 141.996094 Z M 248.636719 138.179688 C 249.738281 138.179688 250.804688 138.28125 251.867188 138.4375 C 251.726562 140.113281 250.355469 141.457031 248.636719 141.457031 C 246.917969 141.457031 245.542969 140.113281 245.402344 138.4375 C 246.46875 138.28125 247.53125 138.179688 248.636719 138.179688 Z M 247.558594 170.910156 L 244.941406 164.394531 L 248.648438 154.277344 L 252.34375 164.355469 L 249.714844 170.910156 C 249.355469 170.910156 248.996094 170.964844 248.636719 170.964844 C 248.277344 170.964844 247.917969 170.910156 247.558594 170.910156 Z M 271.625 163.511719 C 267.355469 166.582031 262.464844 168.835938 257.15625 170.015625 L 266.496094 146.710938 C 269.703125 150.652344 271.625 155.671875 271.625 161.128906 Z M 235.496094 118.511719 C 235.496094 111.277344 241.386719 105.398438 248.636719 105.398438 C 255.882812 105.398438 261.773438 111.277344 261.773438 118.511719 C 261.773438 125.746094 255.882812 131.625 248.636719 131.625 C 241.386719 131.625 235.496094 125.746094 235.496094 118.511719 Z M 281.480469 200.46875 C 283.289062 200.46875 284.765625 201.941406 284.765625 203.746094 C 284.765625 205.550781 283.289062 207.023438 281.480469 207.023438 C 279.671875 207.023438 278.195312 205.550781 278.195312 203.746094 C 278.195312 201.941406 279.671875 200.46875 281.480469 200.46875 Z M 209.222656 282.421875 C 207.414062 282.421875 205.9375 280.949219 205.9375 279.144531 C 205.9375 277.339844 207.414062 275.867188 209.222656 275.867188 C 211.03125 275.867188 212.507812 277.339844 212.507812 279.144531 C 212.507812 280.949219 211.03125 282.421875 209.222656 282.421875 Z M 97.550781 170.964844 C 95.742188 170.964844 94.265625 169.492188 94.265625 167.683594 C 94.265625 165.878906 95.742188 164.40625 97.550781 164.40625 C 99.359375 164.40625 100.835938 165.878906 100.835938 167.683594 C 100.835938 169.492188 99.359375 170.964844 97.550781 170.964844 Z M 173.09375 92.285156 C 174.902344 92.285156 176.378906 93.757812 176.378906 95.5625 C 176.378906 97.371094 174.902344 98.84375 173.09375 98.84375 C 171.285156 98.84375 169.808594 97.371094 169.808594 95.5625 C 169.808594 93.757812 171.285156 92.285156 173.09375 92.285156 Z M 248.636719 85.730469 C 228.429688 85.730469 211.25 98.828125 205.105469 116.949219 C 200.011719 115.835938 194.777344 115.234375 189.515625 115.234375 C 186.011719 115.234375 182.585938 115.503906 179.214844 115.976562 L 176.941406 104.617188 C 180.46875 103.117188 182.945312 99.625 182.945312 95.5625 C 182.945312 90.132812 178.53125 85.730469 173.09375 85.730469 C 167.652344 85.730469 163.238281 90.132812 163.238281 95.5625 C 163.238281 100.019531 166.242188 103.746094 170.308594 104.949219 L 172.773438 117.207031 C 160.660156 120.085938 149.71875 126.003906 140.828125 134.121094 L 129.074219 122.390625 C 131.949219 118.5625 133.679688 113.824219 133.679688 108.675781 C 133.679688 96.023438 123.363281 85.730469 110.6875 85.730469 C 98.011719 85.730469 87.699219 96.023438 87.699219 108.675781 C 87.699219 121.328125 98.011719 131.625 110.6875 131.625 C 115.847656 131.625 120.59375 129.894531 124.429688 127.027344 L 136.183594 138.757812 C 128.753906 146.863281 123.171875 156.683594 120.054688 167.519531 L 106.957031 164.90625 C 105.75 160.847656 102.015625 157.851562 97.550781 157.851562 C 92.113281 157.851562 87.699219 162.253906 87.699219 167.683594 C 87.699219 173.113281 92.113281 177.519531 97.550781 177.519531 C 101.617188 177.519531 105.121094 175.046875 106.621094 171.527344 L 118.539062 173.910156 C 117.707031 178.261719 117.257812 182.757812 117.257812 187.355469 C 117.257812 191.554688 117.644531 195.753906 118.359375 199.863281 C 100.527344 206.179688 87.699219 223.144531 87.699219 243.082031 C 87.699219 268.386719 108.328125 288.980469 133.679688 288.980469 C 153.65625 288.980469 170.65625 276.171875 176.980469 258.375 C 181.113281 259.089844 185.308594 259.476562 189.515625 259.476562 C 194.121094 259.476562 198.625 259.027344 202.988281 258.195312 L 205.375 270.089844 C 201.84375 271.589844 199.367188 275.085938 199.367188 279.144531 C 199.367188 284.574219 203.78125 288.980469 209.222656 288.980469 C 214.660156 288.980469 219.074219 284.574219 219.074219 279.144531 C 219.074219 274.6875 216.074219 270.960938 212.007812 269.757812 L 209.375 256.683594 C 220.242188 253.570312 230.082031 248 238.203125 240.585938 L 249.957031 252.316406 C 247.082031 256.144531 245.351562 260.882812 245.351562 266.03125 C 245.351562 278.683594 255.667969 288.980469 268.34375 288.980469 C 281.019531 288.980469 291.332031 278.683594 291.332031 266.03125 C 291.332031 253.378906 281.019531 243.082031 268.34375 243.082031 C 263.183594 243.082031 258.4375 244.8125 254.601562 247.679688 L 242.847656 235.953125 C 250.984375 227.0625 256.910156 216.152344 259.796875 204.066406 L 272.074219 206.523438 C 273.28125 210.582031 277.015625 213.578125 281.480469 213.578125 C 286.917969 213.578125 291.332031 209.175781 291.332031 203.746094 C 291.332031 198.316406 286.917969 193.910156 281.480469 193.910156 C 277.414062 193.910156 273.910156 196.382812 272.410156 199.902344 L 261.027344 197.636719 C 261.503906 194.269531 261.773438 190.851562 261.773438 187.355469 C 261.773438 183.488281 261.375 179.644531 260.773438 175.84375 C 280.246094 170.515625 294.617188 152.742188 294.617188 131.625 C 294.617188 106.320312 273.988281 85.730469 248.636719 85.730469 Z M 110.6875 262.753906 L 110.6875 235.273438 L 130.394531 245.105469 L 130.394531 249.640625 L 136.964844 249.640625 L 136.964844 245.105469 L 156.671875 235.273438 L 156.671875 262.753906 Z M 123.828125 216.859375 L 143.535156 216.859375 L 143.535156 223.414062 L 123.828125 223.414062 Z M 133.679688 239.421875 L 114.757812 229.972656 L 152.617188 229.972656 Z M 156.671875 223.414062 L 150.101562 223.414062 L 150.101562 216.859375 C 150.101562 213.246094 147.152344 210.300781 143.535156 210.300781 L 123.828125 210.300781 C 120.207031 210.300781 117.257812 213.246094 117.257812 216.859375 L 117.257812 223.414062 L 110.6875 223.414062 C 107.070312 223.414062 104.121094 226.359375 104.121094 229.972656 L 104.121094 262.753906 C 104.121094 266.363281 107.070312 269.308594 110.6875 269.308594 L 156.671875 269.308594 C 160.289062 269.308594 163.238281 266.363281 163.238281 262.753906 L 163.238281 229.972656 C 163.238281 226.359375 160.289062 223.414062 156.671875 223.414062 " clip-rule="nonzero"/></clipPath><linearGradient x1="0.000000153706" gradientTransform="matrix(0, -203.249995, 203.634975, 0, 191.15771, 288.979121)" y1="0" x2="1" gradientUnits="userSpaceOnUse" y2="0" id="de4ca1ec05"><stop stop-opacity="1" stop-color="rgb(62.399292%, 18.399048%, 100%)" offset="0"/><stop stop-opacity="1" stop-color="rgb(62.199402%, 18.598938%, 100%)" offset="0.00390625"/><stop stop-opacity="1" stop-color="rgb(61.999512%, 18.798828%, 100%)" offset="0.0078125"/><stop stop-opacity="1" stop-color="rgb(61.799622%, 18.998718%, 99.798584%)" offset="0.0117188"/><stop stop-opacity="1" stop-color="rgb(61.599731%, 19.198608%, 99.598694%)" offset="0.015625"/><stop stop-opacity="1" stop-color="rgb(61.376953%, 19.419861%, 99.598694%)" offset="0.0195312"/><stop stop-opacity="1" stop-color="rgb(61.155701%, 19.642639%, 99.598694%)" offset="0.0234375"/><stop stop-opacity="1" stop-color="rgb(60.777283%, 19.833374%, 99.586487%)" offset="0.0273438"/><stop stop-opacity="1" stop-color="rgb(60.398865%, 20.024109%, 99.57428%)" offset="0.03125"/><stop stop-opacity="1" stop-color="rgb(60.198975%, 20.214844%, 99.386597%)" offset="0.0351562"/><stop stop-opacity="1" stop-color="rgb(59.999084%, 20.405579%, 99.198914%)" offset="0.0390625"/><stop stop-opacity="1" stop-color="rgb(59.805298%, 20.602417%, 99.198914%)" offset="0.0429688"/><stop stop-opacity="1" stop-color="rgb(59.611511%, 20.799255%, 99.198914%)" offset="0.046875"/><stop stop-opacity="1" stop-color="rgb(59.405518%, 20.999146%, 99.198914%)" offset="0.0507812"/><stop stop-opacity="1" stop-color="rgb(59.199524%, 21.199036%, 99.198914%)" offset="0.0546875"/><stop stop-opacity="1" stop-color="rgb(58.999634%, 21.398926%, 98.999023%)" offset="0.0585938"/><stop stop-opacity="1" stop-color="rgb(58.799744%, 21.598816%, 98.799133%)" offset="0.0625"/><stop stop-opacity="1" stop-color="rgb(58.583069%, 21.813965%, 98.799133%)" offset="0.0664062"/><stop stop-opacity="1" stop-color="rgb(58.36792%, 22.03064%, 98.799133%)" offset="0.0703125"/><stop stop-opacity="1" stop-color="rgb(57.983398%, 22.219849%, 98.79303%)" offset="0.0742188"/><stop stop-opacity="1" stop-color="rgb(57.598877%, 22.409058%, 98.786926%)" offset="0.078125"/><stop stop-opacity="1" stop-color="rgb(57.450867%, 22.554016%, 98.59314%)" offset="0.0859375"/><stop stop-opacity="1" stop-color="rgb(57.113647%, 22.898865%, 98.399353%)" offset="0.0898438"/><stop stop-opacity="1" stop-color="rgb(56.924438%, 23.098755%, 98.399353%)" offset="0.09375"/><stop stop-opacity="1" stop-color="rgb(56.733704%, 23.298645%, 98.399353%)" offset="0.0976562"/><stop stop-opacity="1" stop-color="rgb(56.542969%, 23.498535%, 98.399353%)" offset="0.101562"/><stop stop-opacity="1" stop-color="rgb(56.30188%, 23.716736%, 98.199463%)" offset="0.105469"/><stop stop-opacity="1" stop-color="rgb(56.062317%, 23.936462%, 97.999573%)" offset="0.109375"/><stop stop-opacity="1" stop-color="rgb(55.871582%, 24.127197%, 97.999573%)" offset="0.117188"/><stop stop-opacity="1" stop-color="rgb(55.290222%, 24.508667%, 97.799683%)" offset="0.121094"/><stop stop-opacity="1" stop-color="rgb(54.899597%, 24.699402%, 97.599792%)" offset="0.125"/><stop stop-opacity="1" stop-color="rgb(54.708862%, 24.899292%, 97.599792%)" offset="0.128906"/><stop stop-opacity="1" stop-color="rgb(54.518127%, 25.099182%, 97.599792%)" offset="0.132812"/><stop stop-opacity="1" stop-color="rgb(54.327393%, 25.299072%, 97.599792%)" offset="0.136719"/><stop stop-opacity="1" stop-color="rgb(54.136658%, 25.498962%, 97.599792%)" offset="0.140625"/><stop stop-opacity="1" stop-color="rgb(53.895569%, 25.720215%, 97.44873%)" offset="0.144531"/><stop stop-opacity="1" stop-color="rgb(53.656006%, 25.942993%, 97.299194%)" offset="0.148438"/><stop stop-opacity="1" stop-color="rgb(53.465271%, 26.133728%, 97.299194%)" offset="0.15625"/><stop stop-opacity="1" stop-color="rgb(53.083801%, 26.515198%, 97.299194%)" offset="0.164062"/><stop stop-opacity="1" stop-color="rgb(52.696228%, 26.902771%, 97.105408%)" offset="0.167969"/><stop stop-opacity="1" stop-color="rgb(52.49939%, 27.099609%, 96.911621%)" offset="0.171875"/><stop stop-opacity="1" stop-color="rgb(52.165222%, 27.2995%, 96.905518%)" offset="0.175781"/><stop stop-opacity="1" stop-color="rgb(51.831055%, 27.49939%, 96.899414%)" offset="0.179688"/><stop stop-opacity="1" stop-color="rgb(51.64032%, 27.648926%, 96.899414%)" offset="0.1875"/><stop stop-opacity="1" stop-color="rgb(51.223755%, 28.015137%, 96.699524%)" offset="0.191406"/><stop stop-opacity="1" stop-color="rgb(50.999451%, 28.230286%, 96.499634%)" offset="0.195312"/><stop stop-opacity="1" stop-color="rgb(50.793457%, 28.421021%, 96.499634%)" offset="0.199219"/><stop stop-opacity="1" stop-color="rgb(50.587463%, 28.611755%, 96.499634%)" offset="0.203125"/><stop stop-opacity="1" stop-color="rgb(50.393677%, 28.805542%, 96.499634%)" offset="0.210938"/><stop stop-opacity="1" stop-color="rgb(49.998474%, 29.199219%, 96.311951%)" offset="0.214844"/><stop stop-opacity="1" stop-color="rgb(49.798584%, 29.399109%, 96.124268%)" offset="0.21875"/><stop stop-opacity="1" stop-color="rgb(49.420166%, 29.598999%, 96.112061%)" offset="0.222656"/><stop stop-opacity="1" stop-color="rgb(49.043274%, 29.798889%, 96.099854%)" offset="0.226562"/><stop stop-opacity="1" stop-color="rgb(48.820496%, 30.01709%, 96.099854%)" offset="0.230469"/><stop stop-opacity="1" stop-color="rgb(48.599243%, 30.236816%, 96.099854%)" offset="0.234375"/><stop stop-opacity="1" stop-color="rgb(48.399353%, 30.427551%, 95.898438%)" offset="0.238281"/><stop stop-opacity="1" stop-color="rgb(48.199463%, 30.618286%, 95.698547%)" offset="0.242188"/><stop stop-opacity="1" stop-color="rgb(47.999573%, 30.809021%, 95.698547%)" offset="0.246094"/><stop stop-opacity="1" stop-color="rgb(47.799683%, 30.999756%, 95.698547%)" offset="0.25"/><stop stop-opacity="1" stop-color="rgb(47.648621%, 31.390381%, 95.698547%)" offset="0.253906"/><stop stop-opacity="1" stop-color="rgb(47.499084%, 31.781006%, 95.698547%)" offset="0.257812"/><stop stop-opacity="1" stop-color="rgb(47.299194%, 31.971741%, 95.498657%)" offset="0.261719"/><stop stop-opacity="1" stop-color="rgb(47.099304%, 32.162476%, 95.298767%)" offset="0.265625"/><stop stop-opacity="1" stop-color="rgb(46.876526%, 32.330322%, 95.298767%)" offset="0.269531"/><stop stop-opacity="1" stop-color="rgb(46.655273%, 32.499695%, 95.298767%)" offset="0.273438"/><stop stop-opacity="1" stop-color="rgb(46.276855%, 32.699585%, 95.28656%)" offset="0.277344"/><stop stop-opacity="1" stop-color="rgb(45.899963%, 32.899475%, 95.274353%)" offset="0.28125"/><stop stop-opacity="1" stop-color="rgb(45.698547%, 33.099365%, 95.08667%)" offset="0.285156"/><stop stop-opacity="1" stop-color="rgb(45.498657%, 33.299255%, 94.898987%)" offset="0.289062"/><stop stop-opacity="1" stop-color="rgb(45.304871%, 33.493042%, 94.898987%)" offset="0.296875"/><stop stop-opacity="1" stop-color="rgb(44.90509%, 33.877563%, 94.898987%)" offset="0.300781"/><stop stop-opacity="1" stop-color="rgb(44.699097%, 34.068298%, 94.898987%)" offset="0.304688"/><stop stop-opacity="1" stop-color="rgb(44.499207%, 34.259033%, 94.699097%)" offset="0.308594"/><stop stop-opacity="1" stop-color="rgb(44.299316%, 34.449768%, 94.499207%)" offset="0.3125"/><stop stop-opacity="1" stop-color="rgb(44.082642%, 34.674072%, 94.499207%)" offset="0.316406"/><stop stop-opacity="1" stop-color="rgb(43.867493%, 34.899902%, 94.499207%)" offset="0.320312"/><stop stop-opacity="1" stop-color="rgb(43.482971%, 35.099792%, 94.493103%)" offset="0.324219"/><stop stop-opacity="1" stop-color="rgb(43.099976%, 35.299683%, 94.487%)" offset="0.328125"/><stop stop-opacity="1" stop-color="rgb(42.901611%, 35.496521%, 94.293213%)" offset="0.332031"/><stop stop-opacity="1" stop-color="rgb(42.704773%, 35.693359%, 94.099426%)" offset="0.335938"/><stop stop-opacity="1" stop-color="rgb(42.56134%, 35.884094%, 94.099426%)" offset="0.34375"/><stop stop-opacity="1" stop-color="rgb(42.230225%, 36.264038%, 94.099426%)" offset="0.351562"/><stop stop-opacity="1" stop-color="rgb(41.801453%, 36.676025%, 93.899536%)" offset="0.355469"/><stop stop-opacity="1" stop-color="rgb(41.56189%, 36.898804%, 93.699646%)" offset="0.359375"/><stop stop-opacity="1" stop-color="rgb(41.371155%, 37.098694%, 93.699646%)" offset="0.363281"/><stop stop-opacity="1" stop-color="rgb(41.18042%, 37.298584%, 93.699646%)" offset="0.367188"/><stop stop-opacity="1" stop-color="rgb(40.789795%, 37.44812%, 93.499756%)" offset="0.371094"/><stop stop-opacity="1" stop-color="rgb(40.39917%, 37.599182%, 93.299866%)" offset="0.375"/><stop stop-opacity="1" stop-color="rgb(40.208435%, 37.789917%, 93.299866%)" offset="0.382812"/><stop stop-opacity="1" stop-color="rgb(39.826965%, 38.171387%, 93.299866%)" offset="0.390625"/><stop stop-opacity="1" stop-color="rgb(39.395142%, 38.580322%, 93.09845%)" offset="0.394531"/><stop stop-opacity="1" stop-color="rgb(39.155579%, 38.798523%, 92.89856%)" offset="0.398438"/><stop stop-opacity="1" stop-color="rgb(38.964844%, 38.998413%, 92.89856%)" offset="0.402344"/><stop stop-opacity="1" stop-color="rgb(38.774109%, 39.199829%, 92.89856%)" offset="0.40625"/><stop stop-opacity="1" stop-color="rgb(38.583374%, 39.399719%, 92.89856%)" offset="0.410156"/><stop stop-opacity="1" stop-color="rgb(38.392639%, 39.599609%, 92.89856%)" offset="0.414062"/><stop stop-opacity="1" stop-color="rgb(38.195801%, 39.793396%, 92.704773%)" offset="0.417969"/><stop stop-opacity="1" stop-color="rgb(37.998962%, 39.987183%, 92.510986%)" offset="0.421875"/><stop stop-opacity="1" stop-color="rgb(37.660217%, 40.177917%, 92.504883%)" offset="0.425781"/><stop stop-opacity="1" stop-color="rgb(37.322998%, 40.368652%, 92.498779%)" offset="0.429688"/><stop stop-opacity="1" stop-color="rgb(37.135315%, 40.557861%, 92.498779%)" offset="0.4375"/><stop stop-opacity="1" stop-color="rgb(36.723328%, 40.9729%, 92.349243%)" offset="0.441406"/><stop stop-opacity="1" stop-color="rgb(36.499023%, 41.19873%, 92.199707%)" offset="0.445312"/><stop stop-opacity="1" stop-color="rgb(36.29303%, 41.398621%, 92.199707%)" offset="0.449219"/><stop stop-opacity="1" stop-color="rgb(36.087036%, 41.598511%, 92.199707%)" offset="0.453125"/><stop stop-opacity="1" stop-color="rgb(35.89325%, 41.795349%, 92.199707%)" offset="0.457031"/><stop stop-opacity="1" stop-color="rgb(35.699463%, 41.993713%, 92.199707%)" offset="0.460938"/><stop stop-opacity="1" stop-color="rgb(35.499573%, 42.182922%, 92.012024%)" offset="0.464844"/><stop stop-opacity="1" stop-color="rgb(35.299683%, 42.373657%, 91.824341%)" offset="0.46875"/><stop stop-opacity="1" stop-color="rgb(34.921265%, 42.520142%, 91.812134%)" offset="0.472656"/><stop stop-opacity="1" stop-color="rgb(34.542847%, 42.666626%, 91.799927%)" offset="0.476562"/><stop stop-opacity="1" stop-color="rgb(34.320068%, 42.883301%, 91.799927%)" offset="0.480469"/><stop stop-opacity="1" stop-color="rgb(34.098816%, 43.099976%, 91.799927%)" offset="0.484375"/><stop stop-opacity="1" stop-color="rgb(33.898926%, 43.299866%, 91.598511%)" offset="0.488281"/><stop stop-opacity="1" stop-color="rgb(33.699036%, 43.499756%, 91.398621%)" offset="0.492188"/><stop stop-opacity="1" stop-color="rgb(33.499146%, 43.699646%, 91.398621%)" offset="0.496094"/><stop stop-opacity="1" stop-color="rgb(33.299255%, 43.899536%, 91.398621%)" offset="0.5"/><stop stop-opacity="1" stop-color="rgb(33.099365%, 44.099426%, 91.398621%)" offset="0.503906"/><stop stop-opacity="1" stop-color="rgb(32.899475%, 44.299316%, 91.398621%)" offset="0.507812"/><stop stop-opacity="1" stop-color="rgb(32.699585%, 44.499207%, 91.19873%)" offset="0.511719"/><stop stop-opacity="1" stop-color="rgb(32.499695%, 44.699097%, 90.99884%)" offset="0.515625"/><stop stop-opacity="1" stop-color="rgb(32.327271%, 44.920349%, 90.99884%)" offset="0.519531"/><stop stop-opacity="1" stop-color="rgb(32.154846%, 45.143127%, 90.99884%)" offset="0.523438"/><stop stop-opacity="1" stop-color="rgb(31.776428%, 45.333862%, 90.986633%)" offset="0.527344"/><stop stop-opacity="1" stop-color="rgb(31.399536%, 45.524597%, 90.974426%)" offset="0.53125"/><stop stop-opacity="1" stop-color="rgb(31.199646%, 45.715332%, 90.786743%)" offset="0.535156"/><stop stop-opacity="1" stop-color="rgb(30.999756%, 45.906067%, 90.59906%)" offset="0.539062"/><stop stop-opacity="1" stop-color="rgb(30.805969%, 46.102905%, 90.59906%)" offset="0.542969"/><stop stop-opacity="1" stop-color="rgb(30.612183%, 46.299744%, 90.59906%)" offset="0.546875"/><stop stop-opacity="1" stop-color="rgb(30.404663%, 46.499634%, 90.59906%)" offset="0.550781"/><stop stop-opacity="1" stop-color="rgb(30.198669%, 46.699524%, 90.59906%)" offset="0.554688"/><stop stop-opacity="1" stop-color="rgb(29.998779%, 46.899414%, 90.39917%)" offset="0.558594"/><stop stop-opacity="1" stop-color="rgb(29.798889%, 47.099304%, 90.19928%)" offset="0.5625"/><stop stop-opacity="1" stop-color="rgb(29.58374%, 47.309875%, 90.19928%)" offset="0.566406"/><stop stop-opacity="1" stop-color="rgb(29.368591%, 47.521973%, 90.19928%)" offset="0.570312"/><stop stop-opacity="1" stop-color="rgb(28.98407%, 47.666931%, 90.193176%)" offset="0.574219"/><stop stop-opacity="1" stop-color="rgb(28.599548%, 47.81189%, 90.187073%)" offset="0.578125"/><stop stop-opacity="1" stop-color="rgb(28.40271%, 48.005676%, 89.993286%)" offset="0.582031"/><stop stop-opacity="1" stop-color="rgb(28.205872%, 48.199463%, 89.7995%)" offset="0.585938"/><stop stop-opacity="1" stop-color="rgb(28.015137%, 48.399353%, 89.7995%)" offset="0.589844"/><stop stop-opacity="1" stop-color="rgb(27.824402%, 48.599243%, 89.7995%)" offset="0.59375"/><stop stop-opacity="1" stop-color="rgb(27.677917%, 48.799133%, 89.7995%)" offset="0.597656"/><stop stop-opacity="1" stop-color="rgb(27.531433%, 48.999023%, 89.7995%)" offset="0.601562"/><stop stop-opacity="1" stop-color="rgb(27.296448%, 49.217224%, 89.599609%)" offset="0.605469"/><stop stop-opacity="1" stop-color="rgb(27.061462%, 49.436951%, 89.399719%)" offset="0.609375"/><stop stop-opacity="1" stop-color="rgb(26.870728%, 49.627686%, 89.399719%)" offset="0.617188"/><stop stop-opacity="1" stop-color="rgb(26.289368%, 50.009155%, 89.199829%)" offset="0.621094"/><stop stop-opacity="1" stop-color="rgb(25.898743%, 50.19989%, 88.999939%)" offset="0.625"/><stop stop-opacity="1" stop-color="rgb(25.708008%, 50.39978%, 88.999939%)" offset="0.628906"/><stop stop-opacity="1" stop-color="rgb(25.517273%, 50.59967%, 88.999939%)" offset="0.632812"/><stop stop-opacity="1" stop-color="rgb(25.326538%, 50.799561%, 88.999939%)" offset="0.636719"/><stop stop-opacity="1" stop-color="rgb(25.137329%, 50.999451%, 88.999939%)" offset="0.640625"/><stop stop-opacity="1" stop-color="rgb(24.89624%, 51.220703%, 88.798523%)" offset="0.644531"/><stop stop-opacity="1" stop-color="rgb(24.655151%, 51.443481%, 88.598633%)" offset="0.648438"/><stop stop-opacity="1" stop-color="rgb(24.464417%, 51.634216%, 88.598633%)" offset="0.65625"/><stop stop-opacity="1" stop-color="rgb(24.082947%, 52.01416%, 88.598633%)" offset="0.664062"/><stop stop-opacity="1" stop-color="rgb(23.695374%, 52.351379%, 88.404846%)" offset="0.667969"/><stop stop-opacity="1" stop-color="rgb(23.498535%, 52.49939%, 88.21106%)" offset="0.671875"/><stop stop-opacity="1" stop-color="rgb(23.114014%, 52.69928%, 88.204956%)" offset="0.675781"/><stop stop-opacity="1" stop-color="rgb(22.731018%, 52.89917%, 88.198853%)" offset="0.679688"/><stop stop-opacity="1" stop-color="rgb(22.583008%, 53.09906%, 88.198853%)" offset="0.683594"/><stop stop-opacity="1" stop-color="rgb(22.436523%, 53.29895%, 88.198853%)" offset="0.6875"/><stop stop-opacity="1" stop-color="rgb(22.216797%, 53.514099%, 87.998962%)" offset="0.691406"/><stop stop-opacity="1" stop-color="rgb(21.998596%, 53.730774%, 87.799072%)" offset="0.695312"/><stop stop-opacity="1" stop-color="rgb(21.792603%, 53.921509%, 87.799072%)" offset="0.699219"/><stop stop-opacity="1" stop-color="rgb(21.586609%, 54.112244%, 87.799072%)" offset="0.703125"/><stop stop-opacity="1" stop-color="rgb(21.392822%, 54.30603%, 87.799072%)" offset="0.710938"/><stop stop-opacity="1" stop-color="rgb(20.999146%, 54.699707%, 87.658691%)" offset="0.714844"/><stop stop-opacity="1" stop-color="rgb(20.799255%, 54.899597%, 87.518311%)" offset="0.71875"/><stop stop-opacity="1" stop-color="rgb(20.420837%, 55.099487%, 87.509155%)" offset="0.722656"/><stop stop-opacity="1" stop-color="rgb(20.042419%, 55.299377%, 87.5%)" offset="0.726562"/><stop stop-opacity="1" stop-color="rgb(19.821167%, 55.517578%, 87.5%)" offset="0.730469"/><stop stop-opacity="1" stop-color="rgb(19.599915%, 55.737305%, 87.5%)" offset="0.734375"/><stop stop-opacity="1" stop-color="rgb(19.398499%, 55.926514%, 87.298584%)" offset="0.738281"/><stop stop-opacity="1" stop-color="rgb(19.198608%, 56.117249%, 87.098694%)" offset="0.742188"/><stop stop-opacity="1" stop-color="rgb(18.998718%, 56.307983%, 87.098694%)" offset="0.746094"/><stop stop-opacity="1" stop-color="rgb(18.798828%, 56.498718%, 87.098694%)" offset="0.75"/><stop stop-opacity="1" stop-color="rgb(18.598938%, 56.889343%, 87.098694%)" offset="0.753906"/><stop stop-opacity="1" stop-color="rgb(18.399048%, 57.279968%, 87.098694%)" offset="0.757812"/><stop stop-opacity="1" stop-color="rgb(18.199158%, 57.424927%, 86.898804%)" offset="0.761719"/><stop stop-opacity="1" stop-color="rgb(17.999268%, 57.571411%, 86.698914%)" offset="0.765625"/><stop stop-opacity="1" stop-color="rgb(17.782593%, 57.785034%, 86.698914%)" offset="0.769531"/><stop stop-opacity="1" stop-color="rgb(17.565918%, 57.998657%, 86.698914%)" offset="0.773438"/><stop stop-opacity="1" stop-color="rgb(17.23175%, 58.198547%, 86.686707%)" offset="0.777344"/><stop stop-opacity="1" stop-color="rgb(16.899109%, 58.399963%, 86.6745%)" offset="0.78125"/><stop stop-opacity="1" stop-color="rgb(16.699219%, 58.599854%, 86.486816%)" offset="0.785156"/><stop stop-opacity="1" stop-color="rgb(16.499329%, 58.799744%, 86.299133%)" offset="0.789062"/><stop stop-opacity="1" stop-color="rgb(16.305542%, 58.99353%, 86.299133%)" offset="0.796875"/><stop stop-opacity="1" stop-color="rgb(15.905762%, 59.376526%, 86.299133%)" offset="0.800781"/><stop stop-opacity="1" stop-color="rgb(15.699768%, 59.567261%, 86.299133%)" offset="0.804688"/><stop stop-opacity="1" stop-color="rgb(15.499878%, 59.757996%, 86.099243%)" offset="0.808594"/><stop stop-opacity="1" stop-color="rgb(15.299988%, 59.94873%, 85.899353%)" offset="0.8125"/><stop stop-opacity="1" stop-color="rgb(15.083313%, 60.173035%, 85.899353%)" offset="0.816406"/><stop stop-opacity="1" stop-color="rgb(14.868164%, 60.398865%, 85.899353%)" offset="0.820312"/><stop stop-opacity="1" stop-color="rgb(14.483643%, 60.598755%, 85.89325%)" offset="0.824219"/><stop stop-opacity="1" stop-color="rgb(14.099121%, 60.798645%, 85.887146%)" offset="0.828125"/><stop stop-opacity="1" stop-color="rgb(13.902283%, 60.995483%, 85.693359%)" offset="0.832031"/><stop stop-opacity="1" stop-color="rgb(13.705444%, 61.192322%, 85.499573%)" offset="0.835938"/><stop stop-opacity="1" stop-color="rgb(13.514709%, 61.383057%, 85.499573%)" offset="0.84375"/><stop stop-opacity="1" stop-color="rgb(13.13324%, 61.764526%, 85.499573%)" offset="0.851562"/><stop stop-opacity="1" stop-color="rgb(12.705994%, 62.176514%, 85.299683%)" offset="0.855469"/><stop stop-opacity="1" stop-color="rgb(12.471008%, 62.399292%, 85.099792%)" offset="0.859375"/><stop stop-opacity="1" stop-color="rgb(12.32605%, 62.548828%, 85.099792%)" offset="0.867188"/><stop stop-opacity="1" stop-color="rgb(11.790466%, 62.89978%, 84.898376%)" offset="0.871094"/><stop stop-opacity="1" stop-color="rgb(11.399841%, 63.09967%, 84.698486%)" offset="0.875"/><stop stop-opacity="1" stop-color="rgb(11.209106%, 63.290405%, 84.698486%)" offset="0.882812"/><stop stop-opacity="1" stop-color="rgb(10.827637%, 63.670349%, 84.698486%)" offset="0.890625"/><stop stop-opacity="1" stop-color="rgb(10.395813%, 64.079285%, 84.498596%)" offset="0.894531"/><stop stop-opacity="1" stop-color="rgb(10.154724%, 64.299011%, 84.298706%)" offset="0.898438"/><stop stop-opacity="1" stop-color="rgb(9.963989%, 64.498901%, 84.298706%)" offset="0.902344"/><stop stop-opacity="1" stop-color="rgb(9.77478%, 64.698792%, 84.298706%)" offset="0.90625"/><stop stop-opacity="1" stop-color="rgb(9.584045%, 64.898682%, 84.298706%)" offset="0.910156"/><stop stop-opacity="1" stop-color="rgb(9.393311%, 65.098572%, 84.298706%)" offset="0.914062"/><stop stop-opacity="1" stop-color="rgb(9.196472%, 65.292358%, 84.104919%)" offset="0.917969"/><stop stop-opacity="1" stop-color="rgb(8.999634%, 65.486145%, 83.911133%)" offset="0.921875"/><stop stop-opacity="1" stop-color="rgb(8.615112%, 65.67688%, 83.905029%)" offset="0.925781"/><stop stop-opacity="1" stop-color="rgb(8.230591%, 65.867615%, 83.898926%)" offset="0.929688"/><stop stop-opacity="1" stop-color="rgb(8.039856%, 66.05835%, 83.898926%)" offset="0.9375"/><stop stop-opacity="1" stop-color="rgb(7.673645%, 66.473389%, 83.699036%)" offset="0.941406"/><stop stop-opacity="1" stop-color="rgb(7.499695%, 66.699219%, 83.499146%)" offset="0.945312"/><stop stop-opacity="1" stop-color="rgb(7.292175%, 66.899109%, 83.499146%)" offset="0.949219"/><stop stop-opacity="1" stop-color="rgb(7.086182%, 67.098999%, 83.499146%)" offset="0.953125"/><stop stop-opacity="1" stop-color="rgb(6.892395%, 67.295837%, 83.499146%)" offset="0.957031"/><stop stop-opacity="1" stop-color="rgb(6.698608%, 67.492676%, 83.499146%)" offset="0.960938"/><stop stop-opacity="1" stop-color="rgb(6.498718%, 67.636108%, 83.311462%)" offset="0.964844"/><stop stop-opacity="1" stop-color="rgb(6.298828%, 67.781067%, 83.123779%)" offset="0.96875"/><stop stop-opacity="1" stop-color="rgb(5.92041%, 67.967224%, 83.111572%)" offset="0.972656"/><stop stop-opacity="1" stop-color="rgb(5.543518%, 68.154907%, 83.099365%)" offset="0.976562"/><stop stop-opacity="1" stop-color="rgb(5.32074%, 68.37616%, 83.099365%)" offset="0.980469"/><stop stop-opacity="1" stop-color="rgb(5.099487%, 68.598938%, 83.099365%)" offset="0.984375"/><stop stop-opacity="1" stop-color="rgb(4.899597%, 68.798828%, 82.899475%)" offset="0.988281"/><stop stop-opacity="1" stop-color="rgb(4.699707%, 68.998718%, 82.699585%)" offset="0.992188"/><stop stop-opacity="1" stop-color="rgb(4.499817%, 69.198608%, 82.699585%)" offset="0.996094"/><stop stop-opacity="1" stop-color="rgb(4.299927%, 69.398499%, 82.699585%)" offset="1"/></linearGradient></defs><g clip-path="url(#aef31664d5)"><g clip-path="url(#2fb0d04e4a)"><g clip-path="url(#9b9695437a)"><path fill="url(#de4ca1ec05)" d="M 87.699219 288.980469 L 294.617188 288.980469 L 294.617188 85.730469 L 87.699219 85.730469 Z M 87.699219 288.980469 " fill-rule="nonzero"/></g></g></g></svg>