<svg xmlns="http://www.w3.org/2000/svg" xmlns:xlink="http://www.w3.org/1999/xlink" width="1024" zoomAndPan="magnify" viewBox="0 0 768 767.999994" height="1024" preserveAspectRatio="xMidYMid meet" version="1.0"><defs><clipPath id="06fe94e1ac"><path d="M 11.203125 35 L 741.703125 35 L 741.703125 748 L 11.203125 748 Z M 11.203125 35 " clip-rule="nonzero"/></clipPath></defs><g clip-path="url(#06fe94e1ac)"><path fill="#ffffff" d="M 376.453125 35.386719 C 174.65625 35.386719 11.203125 198.925781 11.203125 400.636719 C 11.203125 562.046875 115.847656 698.925781 260.945312 747.167969 C 279.207031 750.605469 285.902344 739.316406 285.902344 729.605469 C 285.902344 720.929688 285.597656 697.949219 285.445312 667.511719 C 183.847656 689.550781 162.417969 618.507812 162.417969 618.507812 C 145.800781 576.351562 121.785156 565.089844 121.785156 565.089844 C 88.699219 542.445312 124.339844 542.902344 124.339844 542.902344 C 161.019531 545.457031 180.285156 580.523438 180.285156 580.523438 C 212.851562 636.375 265.785156 620.242188 286.664062 610.898438 C 289.953125 587.28125 299.355469 571.179688 309.796875 562.046875 C 228.679688 552.914062 143.425781 521.503906 143.425781 381.550781 C 143.425781 341.679688 157.578125 309.113281 181.015625 283.542969 C 176.90625 274.320312 164.578125 237.1875 184.210938 186.875 C 184.210938 186.875 214.800781 177.074219 284.65625 224.3125 C 313.875 216.1875 344.921875 212.167969 375.96875 211.984375 C 407.015625 212.167969 438.058594 216.1875 467.28125 224.3125 C 536.679688 177.074219 567.269531 186.875 567.269531 186.875 C 586.898438 237.1875 574.574219 274.320312 570.921875 283.542969 C 594.203125 309.113281 608.359375 341.679688 608.359375 381.550781 C 608.359375 521.871094 522.980469 552.761719 441.714844 561.742188 C 454.496094 572.699219 466.367188 595.101562 466.367188 629.3125 C 466.367188 678.195312 465.910156 717.460938 465.910156 729.332031 C 465.910156 738.917969 472.304688 750.332031 491.023438 746.679688 C 637.152344 698.773438 741.703125 561.804688 741.703125 400.636719 C 741.703125 198.925781 578.164062 35.386719 376.453125 35.386719 " fill-opacity="1" fill-rule="nonzero"/></g></svg>