<svg xmlns="http://www.w3.org/2000/svg" xmlns:xlink="http://www.w3.org/1999/xlink" width="500" zoomAndPan="magnify" viewBox="0 0 375 374.999991" height="500" preserveAspectRatio="xMidYMid meet" version="1.0"><defs><clipPath id="f3eab4e0e9"><path d="M 29.691406 24.367188 L 355.941406 24.367188 L 355.941406 350.617188 L 29.691406 350.617188 Z M 29.691406 24.367188 " clip-rule="nonzero"/></clipPath></defs><g clip-path="url(#f3eab4e0e9)"><path fill="#ffffff" d="M 281.765625 24.535156 L 104.257812 24.535156 C 103.039062 24.535156 101.824219 24.566406 100.605469 24.628906 C 99.390625 24.691406 98.175781 24.78125 96.964844 24.902344 C 95.753906 25.023438 94.546875 25.171875 93.34375 25.351562 C 92.140625 25.53125 90.941406 25.742188 89.746094 25.980469 C 88.554688 26.21875 87.367188 26.484375 86.1875 26.78125 C 85.003906 27.078125 83.832031 27.402344 82.667969 27.757812 C 81.503906 28.113281 80.347656 28.496094 79.203125 28.90625 C 78.058594 29.316406 76.921875 29.753906 75.796875 30.222656 C 74.671875 30.6875 73.5625 31.183594 72.460938 31.703125 C 71.363281 32.222656 70.273438 32.773438 69.203125 33.347656 C 68.128906 33.921875 67.070312 34.519531 66.027344 35.148438 C 64.980469 35.773438 63.953125 36.425781 62.941406 37.101562 C 61.929688 37.777344 60.9375 38.480469 59.957031 39.203125 C 58.980469 39.929688 58.023438 40.679688 57.082031 41.449219 C 56.140625 42.222656 55.21875 43.019531 54.316406 43.835938 C 53.414062 44.652344 52.535156 45.492188 51.671875 46.351562 C 50.8125 47.214844 49.972656 48.09375 49.15625 48.996094 C 48.339844 49.898438 47.542969 50.820312 46.769531 51.761719 C 46 52.703125 45.25 53.660156 44.523438 54.636719 C 43.800781 55.617188 43.097656 56.609375 42.421875 57.621094 C 41.746094 58.632812 41.09375 59.664062 40.46875 60.707031 C 39.84375 61.75 39.242188 62.808594 38.667969 63.882812 C 38.09375 64.953125 37.546875 66.042969 37.023438 67.140625 C 36.503906 68.242188 36.011719 69.355469 35.542969 70.476562 C 35.078125 71.601562 34.640625 72.738281 34.226562 73.882812 C 33.816406 75.027344 33.433594 76.183594 33.082031 77.347656 C 32.726562 78.511719 32.402344 79.6875 32.105469 80.867188 C 31.808594 82.046875 31.539062 83.234375 31.300781 84.429688 C 31.0625 85.621094 30.855469 86.820312 30.675781 88.023438 C 30.496094 89.226562 30.34375 90.4375 30.222656 91.648438 C 30.101562 92.859375 30.011719 94.070312 29.953125 95.289062 C 29.890625 96.503906 29.859375 97.71875 29.859375 98.9375 L 29.859375 276.4375 C 29.859375 277.652344 29.890625 278.871094 29.953125 280.085938 C 30.011719 281.300781 30.101562 282.515625 30.222656 283.726562 C 30.34375 284.9375 30.496094 286.144531 30.675781 287.347656 C 30.855469 288.554688 31.0625 289.75 31.300781 290.945312 C 31.539062 292.140625 31.808594 293.324219 32.105469 294.507812 C 32.402344 295.6875 32.726562 296.859375 33.082031 298.023438 C 33.433594 299.1875 33.816406 300.34375 34.226562 301.488281 C 34.640625 302.636719 35.078125 303.769531 35.542969 304.894531 C 36.011719 306.019531 36.503906 307.132812 37.023438 308.230469 C 37.546875 309.332031 38.09375 310.417969 38.667969 311.492188 C 39.242188 312.566406 39.84375 313.625 40.46875 314.667969 C 41.09375 315.710938 41.746094 316.738281 42.421875 317.75 C 43.097656 318.761719 43.800781 319.757812 44.523438 320.734375 C 45.25 321.710938 46 322.671875 46.769531 323.613281 C 47.542969 324.554688 48.339844 325.476562 49.15625 326.375 C 49.972656 327.277344 50.8125 328.160156 51.671875 329.019531 C 52.535156 329.882812 53.414062 330.71875 54.316406 331.539062 C 55.21875 332.355469 56.140625 333.152344 57.082031 333.921875 C 58.023438 334.695312 58.980469 335.445312 59.957031 336.167969 C 60.9375 336.894531 61.929688 337.597656 62.941406 338.273438 C 63.953125 338.949219 64.980469 339.601562 66.027344 340.226562 C 67.070312 340.851562 68.128906 341.453125 69.203125 342.027344 C 70.273438 342.601562 71.363281 343.148438 72.460938 343.671875 C 73.5625 344.191406 74.671875 344.683594 75.796875 345.152344 C 76.921875 345.617188 78.058594 346.054688 79.203125 346.46875 C 80.347656 346.878906 81.503906 347.261719 82.667969 347.613281 C 83.832031 347.96875 85.003906 348.292969 86.1875 348.589844 C 87.367188 348.886719 88.554688 349.15625 89.746094 349.394531 C 90.941406 349.632812 92.140625 349.84375 93.34375 350.023438 C 94.546875 350.203125 95.753906 350.351562 96.964844 350.472656 C 98.175781 350.59375 99.390625 350.683594 100.605469 350.746094 C 101.824219 350.804688 103.039062 350.835938 104.257812 350.839844 L 281.765625 350.839844 C 282.980469 350.835938 284.199219 350.804688 285.414062 350.746094 C 286.628906 350.683594 287.84375 350.59375 289.054688 350.472656 C 290.265625 350.351562 291.472656 350.203125 292.675781 350.023438 C 293.878906 349.84375 295.078125 349.632812 296.273438 349.394531 C 297.464844 349.15625 298.652344 348.886719 299.832031 348.589844 C 301.015625 348.292969 302.1875 347.96875 303.351562 347.613281 C 304.515625 347.261719 305.671875 346.878906 306.816406 346.46875 C 307.960938 346.054688 309.097656 345.617188 310.222656 345.152344 C 311.347656 344.683594 312.457031 344.191406 313.558594 343.671875 C 314.660156 343.148438 315.746094 342.601562 316.820312 342.027344 C 317.890625 341.453125 318.949219 340.851562 319.992188 340.226562 C 321.039062 339.601562 322.066406 338.949219 323.078125 338.273438 C 324.089844 337.597656 325.085938 336.894531 326.0625 336.167969 C 327.039062 335.445312 328 334.695312 328.9375 333.921875 C 329.878906 333.152344 330.800781 332.355469 331.703125 331.539062 C 332.605469 330.71875 333.484375 329.882812 334.347656 329.019531 C 335.207031 328.160156 336.046875 327.277344 336.863281 326.375 C 337.679688 325.476562 338.476562 324.554688 339.25 323.613281 C 340.019531 322.671875 340.769531 321.710938 341.496094 320.734375 C 342.21875 319.757812 342.921875 318.761719 343.597656 317.75 C 344.273438 316.738281 344.925781 315.710938 345.550781 314.667969 C 346.179688 313.625 346.777344 312.566406 347.351562 311.492188 C 347.925781 310.417969 348.472656 309.332031 348.996094 308.230469 C 349.515625 307.132812 350.007812 306.019531 350.476562 304.894531 C 350.941406 303.769531 351.382812 302.636719 351.792969 301.488281 C 352.203125 300.34375 352.585938 299.1875 352.9375 298.023438 C 353.292969 296.859375 353.617188 295.6875 353.914062 294.507812 C 354.210938 293.324219 354.480469 292.140625 354.71875 290.945312 C 354.957031 289.75 355.164062 288.554688 355.34375 287.347656 C 355.527344 286.144531 355.675781 284.9375 355.796875 283.726562 C 355.917969 282.515625 356.007812 281.300781 356.066406 280.085938 C 356.128906 278.871094 356.160156 277.652344 356.160156 276.4375 L 356.160156 98.9375 C 356.160156 97.71875 356.128906 96.503906 356.066406 95.289062 C 356.007812 94.070312 355.917969 92.859375 355.796875 91.648438 C 355.675781 90.4375 355.527344 89.226562 355.34375 88.023438 C 355.164062 86.820312 354.957031 85.621094 354.71875 84.429688 C 354.480469 83.234375 354.210938 82.046875 353.914062 80.867188 C 353.617188 79.6875 353.292969 78.511719 352.9375 77.347656 C 352.585938 76.183594 352.203125 75.027344 351.792969 73.882812 C 351.382812 72.738281 350.941406 71.601562 350.476562 70.476562 C 350.007812 69.355469 349.515625 68.242188 348.996094 67.140625 C 348.472656 66.042969 347.925781 64.953125 347.351562 63.882812 C 346.777344 62.808594 346.179688 61.75 345.550781 60.707031 C 344.925781 59.664062 344.273438 58.632812 343.597656 57.621094 C 342.921875 56.609375 342.21875 55.617188 341.496094 54.636719 C 340.769531 53.660156 340.019531 52.703125 339.25 51.761719 C 338.476562 50.820312 337.679688 49.898438 336.863281 48.996094 C 336.046875 48.09375 335.207031 47.214844 334.347656 46.351562 C 333.484375 45.492188 332.605469 44.652344 331.703125 43.835938 C 330.800781 43.019531 329.878906 42.222656 328.9375 41.449219 C 328 40.679688 327.039062 39.929688 326.0625 39.203125 C 325.085938 38.480469 324.089844 37.777344 323.078125 37.101562 C 322.066406 36.425781 321.039062 35.773438 319.992188 35.148438 C 318.949219 34.519531 317.890625 33.921875 316.820312 33.347656 C 315.746094 32.773438 314.660156 32.222656 313.558594 31.703125 C 312.457031 31.183594 311.347656 30.6875 310.222656 30.222656 C 309.097656 29.753906 307.960938 29.316406 306.816406 28.90625 C 305.671875 28.496094 304.515625 28.113281 303.351562 27.757812 C 302.1875 27.402344 301.015625 27.078125 299.832031 26.78125 C 298.652344 26.484375 297.464844 26.21875 296.273438 25.980469 C 295.078125 25.742188 293.878906 25.53125 292.675781 25.351562 C 291.472656 25.171875 290.265625 25.023438 289.054688 24.902344 C 287.84375 24.78125 286.628906 24.691406 285.414062 24.628906 C 284.199219 24.566406 282.980469 24.535156 281.765625 24.535156 Z M 339.765625 276.4375 C 339.761719 278.335938 339.667969 280.230469 339.480469 282.121094 C 339.292969 284.011719 339.011719 285.886719 338.640625 287.75 C 338.269531 289.609375 337.804688 291.449219 337.253906 293.265625 C 336.699219 295.082031 336.0625 296.871094 335.332031 298.625 C 334.605469 300.378906 333.792969 302.09375 332.898438 303.765625 C 332.003906 305.441406 331.027344 307.066406 329.972656 308.648438 C 328.914062 310.226562 327.785156 311.75 326.582031 313.214844 C 325.375 314.683594 324.101562 316.089844 322.757812 317.433594 C 321.417969 318.777344 320.011719 320.050781 318.542969 321.253906 C 317.074219 322.460938 315.550781 323.589844 313.972656 324.644531 C 312.394531 325.699219 310.769531 326.675781 309.09375 327.574219 C 307.417969 328.46875 305.703125 329.28125 303.949219 330.007812 C 302.195312 330.734375 300.410156 331.375 298.59375 331.929688 C 296.777344 332.480469 294.9375 332.945312 293.074219 333.316406 C 291.214844 333.6875 289.335938 333.96875 287.445312 334.15625 C 285.558594 334.34375 283.664062 334.4375 281.765625 334.441406 L 104.257812 334.441406 C 102.355469 334.4375 100.460938 334.34375 98.574219 334.15625 C 96.683594 333.96875 94.808594 333.6875 92.945312 333.316406 C 91.082031 332.945312 89.242188 332.480469 87.425781 331.929688 C 85.609375 331.375 83.824219 330.734375 82.070312 330.007812 C 80.316406 329.28125 78.601562 328.46875 76.925781 327.574219 C 75.253906 326.675781 73.625 325.703125 72.046875 324.644531 C 70.46875 323.589844 68.945312 322.460938 67.476562 321.253906 C 66.007812 320.050781 64.605469 318.777344 63.261719 317.433594 C 61.917969 316.089844 60.644531 314.683594 59.441406 313.214844 C 58.234375 311.75 57.105469 310.226562 56.050781 308.648438 C 54.992188 307.066406 54.019531 305.441406 53.121094 303.765625 C 52.226562 302.09375 51.414062 300.378906 50.6875 298.625 C 49.960938 296.871094 49.320312 295.082031 48.765625 293.265625 C 48.214844 291.449219 47.75 289.609375 47.378906 287.75 C 47.007812 285.886719 46.726562 284.011719 46.539062 282.121094 C 46.351562 280.230469 46.257812 278.335938 46.253906 276.4375 L 46.253906 98.9375 C 46.257812 97.039062 46.351562 95.144531 46.539062 93.253906 C 46.726562 91.363281 47.007812 89.488281 47.378906 87.625 C 47.75 85.761719 48.214844 83.921875 48.765625 82.105469 C 49.320312 80.289062 49.960938 78.503906 50.6875 76.75 C 51.414062 74.996094 52.226562 73.28125 53.121094 71.605469 C 54.019531 69.933594 54.992188 68.304688 56.050781 66.726562 C 57.105469 65.148438 58.234375 63.625 59.441406 62.15625 C 60.644531 60.6875 61.917969 59.285156 63.261719 57.941406 C 64.605469 56.597656 66.007812 55.324219 67.476562 54.117188 C 68.945312 52.914062 70.46875 51.785156 72.046875 50.726562 C 73.625 49.671875 75.253906 48.695312 76.925781 47.800781 C 78.601562 46.90625 80.316406 46.09375 82.070312 45.363281 C 83.824219 44.636719 85.609375 43.996094 87.425781 43.445312 C 89.242188 42.890625 91.082031 42.429688 92.945312 42.058594 C 94.808594 41.683594 96.683594 41.40625 98.574219 41.21875 C 100.460938 41.027344 102.355469 40.933594 104.257812 40.933594 L 281.765625 40.933594 C 283.664062 40.933594 285.558594 41.027344 287.445312 41.21875 C 289.335938 41.40625 291.214844 41.683594 293.074219 42.058594 C 294.9375 42.429688 296.777344 42.890625 298.59375 43.445312 C 300.410156 43.996094 302.195312 44.636719 303.949219 45.363281 C 305.703125 46.09375 307.417969 46.90625 309.09375 47.800781 C 310.769531 48.695312 312.394531 49.671875 313.972656 50.726562 C 315.550781 51.785156 317.074219 52.914062 318.542969 54.117188 C 320.011719 55.324219 321.417969 56.597656 322.757812 57.941406 C 324.101562 59.285156 325.375 60.6875 326.582031 62.15625 C 327.785156 63.625 328.914062 65.148438 329.972656 66.726562 C 331.027344 68.304688 332.003906 69.933594 332.898438 71.605469 C 333.792969 73.28125 334.605469 74.996094 335.332031 76.75 C 336.0625 78.503906 336.699219 80.289062 337.253906 82.105469 C 337.804688 83.921875 338.269531 85.761719 338.640625 87.625 C 339.011719 89.488281 339.292969 91.363281 339.480469 93.253906 C 339.667969 95.144531 339.761719 97.039062 339.765625 98.9375 Z M 339.765625 276.4375 " fill-opacity="1" fill-rule="nonzero"/></g><path fill="#ffffff" d="M 307.78125 95.882812 C 307.78125 96.417969 307.757812 96.957031 307.703125 97.488281 C 307.652344 98.023438 307.574219 98.554688 307.46875 99.082031 C 307.363281 99.609375 307.234375 100.128906 307.078125 100.644531 C 306.921875 101.15625 306.738281 101.664062 306.535156 102.160156 C 306.328125 102.65625 306.097656 103.140625 305.847656 103.613281 C 305.59375 104.085938 305.316406 104.546875 305.019531 104.992188 C 304.71875 105.441406 304.402344 105.871094 304.058594 106.285156 C 303.71875 106.703125 303.359375 107.101562 302.980469 107.480469 C 302.597656 107.859375 302.203125 108.21875 301.785156 108.558594 C 301.371094 108.902344 300.941406 109.222656 300.492188 109.519531 C 300.046875 109.816406 299.585938 110.09375 299.113281 110.347656 C 298.640625 110.601562 298.15625 110.828125 297.660156 111.035156 C 297.160156 111.242188 296.65625 111.421875 296.144531 111.578125 C 295.628906 111.734375 295.109375 111.863281 294.582031 111.96875 C 294.054688 112.074219 293.523438 112.152344 292.988281 112.203125 C 292.453125 112.257812 291.917969 112.285156 291.382812 112.285156 C 290.84375 112.285156 290.308594 112.257812 289.773438 112.203125 C 289.238281 112.152344 288.710938 112.074219 288.183594 111.96875 C 287.65625 111.863281 287.136719 111.734375 286.621094 111.578125 C 286.105469 111.421875 285.601562 111.242188 285.105469 111.035156 C 284.609375 110.828125 284.125 110.601562 283.652344 110.347656 C 283.175781 110.09375 282.714844 109.816406 282.269531 109.519531 C 281.824219 109.222656 281.390625 108.902344 280.976562 108.558594 C 280.5625 108.21875 280.164062 107.859375 279.785156 107.480469 C 279.40625 107.101562 279.042969 106.703125 278.703125 106.285156 C 278.363281 105.871094 278.042969 105.441406 277.746094 104.992188 C 277.445312 104.546875 277.171875 104.085938 276.917969 103.613281 C 276.664062 103.140625 276.433594 102.65625 276.230469 102.160156 C 276.023438 101.664062 275.84375 101.15625 275.6875 100.644531 C 275.53125 100.128906 275.402344 99.609375 275.296875 99.082031 C 275.191406 98.554688 275.113281 98.023438 275.058594 97.488281 C 275.007812 96.957031 274.980469 96.417969 274.980469 95.882812 C 274.980469 95.34375 275.007812 94.808594 275.058594 94.273438 C 275.113281 93.738281 275.191406 93.210938 275.296875 92.683594 C 275.402344 92.15625 275.53125 91.636719 275.6875 91.121094 C 275.84375 90.605469 276.023438 90.101562 276.230469 89.605469 C 276.433594 89.109375 276.664062 88.625 276.917969 88.152344 C 277.171875 87.675781 277.445312 87.21875 277.746094 86.769531 C 278.042969 86.324219 278.363281 85.894531 278.703125 85.476562 C 279.042969 85.0625 279.40625 84.664062 279.785156 84.285156 C 280.164062 83.90625 280.5625 83.542969 280.976562 83.203125 C 281.390625 82.863281 281.824219 82.542969 282.269531 82.246094 C 282.714844 81.945312 283.175781 81.671875 283.652344 81.417969 C 284.125 81.164062 284.609375 80.933594 285.105469 80.730469 C 285.601562 80.523438 286.105469 80.34375 286.621094 80.1875 C 287.136719 80.03125 287.65625 79.902344 288.183594 79.796875 C 288.710938 79.691406 289.238281 79.613281 289.773438 79.558594 C 290.308594 79.507812 290.84375 79.480469 291.382812 79.480469 C 291.917969 79.480469 292.453125 79.507812 292.988281 79.558594 C 293.523438 79.613281 294.054688 79.691406 294.582031 79.796875 C 295.109375 79.902344 295.628906 80.03125 296.144531 80.1875 C 296.65625 80.34375 297.160156 80.523438 297.660156 80.730469 C 298.15625 80.933594 298.640625 81.164062 299.113281 81.417969 C 299.585938 81.671875 300.046875 81.945312 300.492188 82.246094 C 300.941406 82.542969 301.371094 82.863281 301.785156 83.203125 C 302.203125 83.542969 302.597656 83.90625 302.980469 84.285156 C 303.359375 84.664062 303.71875 85.0625 304.058594 85.476562 C 304.402344 85.894531 304.71875 86.324219 305.019531 86.769531 C 305.316406 87.21875 305.59375 87.675781 305.847656 88.152344 C 306.097656 88.625 306.328125 89.109375 306.535156 89.605469 C 306.738281 90.101562 306.921875 90.605469 307.078125 91.121094 C 307.234375 91.636719 307.363281 92.15625 307.46875 92.683594 C 307.574219 93.210938 307.652344 93.738281 307.703125 94.273438 C 307.757812 94.808594 307.78125 95.34375 307.78125 95.882812 Z M 307.78125 95.882812 " fill-opacity="1" fill-rule="nonzero"/><path fill="#ffffff" d="M 193.011719 90.734375 C 191.421875 90.734375 189.835938 90.773438 188.253906 90.851562 C 186.667969 90.929688 185.085938 91.046875 183.507812 91.203125 C 181.929688 91.359375 180.355469 91.554688 178.785156 91.785156 C 177.214844 92.019531 175.652344 92.289062 174.097656 92.601562 C 172.539062 92.910156 170.992188 93.257812 169.453125 93.640625 C 167.914062 94.027344 166.386719 94.453125 164.867188 94.910156 C 163.347656 95.371094 161.84375 95.871094 160.347656 96.40625 C 158.855469 96.9375 157.375 97.511719 155.910156 98.117188 C 154.445312 98.726562 152.992188 99.367188 151.558594 100.046875 C 150.125 100.722656 148.707031 101.4375 147.308594 102.183594 C 145.910156 102.933594 144.527344 103.714844 143.167969 104.53125 C 141.808594 105.347656 140.46875 106.195312 139.148438 107.078125 C 137.828125 107.957031 136.53125 108.871094 135.257812 109.816406 C 133.984375 110.761719 132.734375 111.738281 131.507812 112.746094 C 130.28125 113.75 129.078125 114.789062 127.902344 115.851562 C 126.726562 116.917969 125.578125 118.011719 124.457031 119.132812 C 123.335938 120.257812 122.242188 121.40625 121.175781 122.582031 C 120.109375 123.757812 119.074219 124.957031 118.066406 126.183594 C 117.0625 127.410156 116.085938 128.660156 115.140625 129.9375 C 114.195312 131.210938 113.28125 132.507812 112.402344 133.828125 C 111.519531 135.144531 110.671875 136.484375 109.855469 137.847656 C 109.039062 139.207031 108.257812 140.585938 107.507812 141.988281 C 106.761719 143.386719 106.046875 144.804688 105.371094 146.238281 C 104.691406 147.671875 104.050781 149.121094 103.441406 150.589844 C 102.835938 152.054688 102.265625 153.535156 101.730469 155.027344 C 101.195312 156.523438 100.699219 158.027344 100.238281 159.546875 C 99.777344 161.066406 99.355469 162.59375 98.96875 164.132812 C 98.582031 165.671875 98.234375 167.21875 97.925781 168.773438 C 97.617188 170.332031 97.34375 171.894531 97.113281 173.464844 C 96.878906 175.035156 96.683594 176.609375 96.53125 178.1875 C 96.375 179.765625 96.257812 181.347656 96.179688 182.933594 C 96.101562 184.515625 96.0625 186.101562 96.0625 187.6875 C 96.0625 189.277344 96.101562 190.863281 96.179688 192.445312 C 96.257812 194.03125 96.375 195.613281 96.53125 197.191406 C 96.6875 198.769531 96.878906 200.34375 97.113281 201.914062 C 97.34375 203.484375 97.617188 205.046875 97.925781 206.601562 C 98.234375 208.160156 98.582031 209.707031 98.96875 211.246094 C 99.355469 212.785156 99.777344 214.3125 100.238281 215.832031 C 100.699219 217.351562 101.195312 218.855469 101.730469 220.351562 C 102.265625 221.84375 102.835938 223.324219 103.445312 224.789062 C 104.050781 226.253906 104.695312 227.707031 105.371094 229.140625 C 106.050781 230.574219 106.761719 231.992188 107.511719 233.390625 C 108.257812 234.789062 109.042969 236.167969 109.855469 237.53125 C 110.671875 238.890625 111.519531 240.230469 112.402344 241.550781 C 113.285156 242.871094 114.199219 244.167969 115.144531 245.441406 C 116.089844 246.714844 117.0625 247.964844 118.070312 249.191406 C 119.078125 250.417969 120.113281 251.621094 121.179688 252.796875 C 122.246094 253.972656 123.339844 255.121094 124.460938 256.242188 C 125.582031 257.363281 126.730469 258.457031 127.90625 259.523438 C 129.082031 260.589844 130.28125 261.625 131.507812 262.632812 C 132.734375 263.636719 133.988281 264.613281 135.261719 265.558594 C 136.535156 266.503906 137.832031 267.417969 139.152344 268.296875 C 140.46875 269.179688 141.8125 270.027344 143.171875 270.84375 C 144.53125 271.660156 145.914062 272.441406 147.3125 273.191406 C 148.710938 273.9375 150.128906 274.652344 151.5625 275.328125 C 152.996094 276.007812 154.445312 276.648438 155.914062 277.257812 C 157.378906 277.863281 158.859375 278.433594 160.351562 278.96875 C 161.847656 279.503906 163.351562 280.003906 164.871094 280.460938 C 166.390625 280.921875 167.917969 281.347656 169.457031 281.730469 C 170.996094 282.117188 172.542969 282.464844 174.101562 282.773438 C 175.65625 283.082031 177.21875 283.355469 178.789062 283.585938 C 180.359375 283.820312 181.933594 284.015625 183.511719 284.171875 C 185.089844 284.324219 186.671875 284.441406 188.257812 284.519531 C 189.839844 284.597656 191.425781 284.636719 193.015625 284.636719 C 194.601562 284.636719 196.1875 284.597656 197.769531 284.519531 C 199.355469 284.441406 200.9375 284.324219 202.515625 284.171875 C 204.097656 284.015625 205.671875 283.820312 207.238281 283.585938 C 208.808594 283.355469 210.371094 283.082031 211.929688 282.773438 C 213.484375 282.464844 215.03125 282.117188 216.570312 281.730469 C 218.109375 281.347656 219.640625 280.921875 221.15625 280.460938 C 222.675781 280 224.183594 279.503906 225.675781 278.96875 C 227.167969 278.433594 228.648438 277.863281 230.117188 277.257812 C 231.582031 276.648438 233.03125 276.007812 234.464844 275.328125 C 235.898438 274.648438 237.316406 273.9375 238.714844 273.1875 C 240.117188 272.441406 241.496094 271.660156 242.855469 270.84375 C 244.21875 270.027344 245.558594 269.179688 246.875 268.296875 C 248.195312 267.417969 249.492188 266.503906 250.765625 265.558594 C 252.042969 264.613281 253.292969 263.636719 254.519531 262.628906 C 255.746094 261.625 256.945312 260.585938 258.121094 259.523438 C 259.296875 258.457031 260.445312 257.363281 261.566406 256.242188 C 262.691406 255.117188 263.785156 253.96875 264.847656 252.792969 C 265.914062 251.617188 266.953125 250.417969 267.957031 249.191406 C 268.964844 247.964844 269.941406 246.714844 270.886719 245.441406 C 271.832031 244.164062 272.742188 242.867188 273.625 241.550781 C 274.507812 240.230469 275.355469 238.890625 276.171875 237.527344 C 276.988281 236.167969 277.769531 234.789062 278.515625 233.386719 C 279.265625 231.988281 279.976562 230.574219 280.65625 229.136719 C 281.335938 227.703125 281.976562 226.253906 282.585938 224.789062 C 283.191406 223.320312 283.761719 221.84375 284.296875 220.347656 C 284.832031 218.855469 285.328125 217.347656 285.789062 215.828125 C 286.25 214.3125 286.671875 212.78125 287.058594 211.242188 C 287.445312 209.703125 287.792969 208.15625 288.101562 206.601562 C 288.410156 205.042969 288.683594 203.480469 288.914062 201.914062 C 289.148438 200.34375 289.34375 198.769531 289.496094 197.1875 C 289.652344 195.609375 289.769531 194.027344 289.847656 192.445312 C 289.925781 190.859375 289.964844 189.273438 289.964844 187.6875 C 289.960938 186.101562 289.921875 184.515625 289.84375 182.929688 C 289.761719 181.347656 289.644531 179.765625 289.488281 178.1875 C 289.328125 176.609375 289.132812 175.035156 288.898438 173.464844 C 288.664062 171.898438 288.394531 170.335938 288.082031 168.78125 C 287.773438 167.226562 287.421875 165.679688 287.035156 164.140625 C 286.648438 162.601562 286.226562 161.074219 285.761719 159.554688 C 285.300781 158.039062 284.804688 156.53125 284.269531 155.039062 C 283.734375 153.546875 283.160156 152.066406 282.554688 150.601562 C 281.945312 149.136719 281.300781 147.6875 280.621094 146.253906 C 279.945312 144.820312 279.230469 143.40625 278.480469 142.007812 C 277.734375 140.609375 276.953125 139.226562 276.136719 137.867188 C 275.320312 136.507812 274.472656 135.167969 273.589844 133.851562 C 272.707031 132.53125 271.792969 131.234375 270.847656 129.960938 C 269.902344 128.6875 268.929688 127.4375 267.921875 126.210938 C 266.914062 124.984375 265.878906 123.785156 264.8125 122.609375 C 263.75 121.433594 262.65625 120.285156 261.53125 119.164062 C 260.410156 118.042969 259.261719 116.949219 258.085938 115.882812 C 256.914062 114.820312 255.710938 113.785156 254.484375 112.777344 C 253.261719 111.769531 252.011719 110.792969 250.734375 109.847656 C 249.460938 108.90625 248.167969 107.992188 246.847656 107.109375 C 245.527344 106.226562 244.1875 105.378906 242.828125 104.5625 C 241.46875 103.746094 240.089844 102.964844 238.691406 102.214844 C 237.292969 101.46875 235.875 100.753906 234.441406 100.074219 C 233.007812 99.398438 231.558594 98.753906 230.09375 98.144531 C 228.628906 97.539062 227.152344 96.964844 225.65625 96.429688 C 224.164062 95.894531 222.660156 95.398438 221.140625 94.9375 C 219.625 94.472656 218.097656 94.050781 216.558594 93.664062 C 215.019531 93.277344 213.472656 92.929688 211.917969 92.617188 C 210.359375 92.304688 208.800781 92.035156 207.230469 91.800781 C 205.660156 91.566406 204.085938 91.371094 202.507812 91.214844 C 200.929688 91.054688 199.351562 90.9375 197.765625 90.859375 C 196.179688 90.777344 194.597656 90.738281 193.011719 90.734375 Z M 193.011719 268.234375 C 191.691406 268.234375 190.375 268.203125 189.058594 268.140625 C 187.742188 268.074219 186.425781 267.976562 185.113281 267.847656 C 183.804688 267.71875 182.496094 267.558594 181.191406 267.363281 C 179.886719 267.171875 178.589844 266.945312 177.296875 266.6875 C 176.003906 266.429688 174.71875 266.140625 173.4375 265.820312 C 172.160156 265.5 170.890625 265.148438 169.628906 264.769531 C 168.367188 264.386719 167.113281 263.972656 165.875 263.527344 C 164.632812 263.082031 163.402344 262.609375 162.183594 262.105469 C 160.96875 261.601562 159.761719 261.066406 158.570312 260.503906 C 157.378906 259.9375 156.203125 259.347656 155.039062 258.726562 C 153.875 258.105469 152.730469 257.453125 151.597656 256.777344 C 150.46875 256.097656 149.355469 255.394531 148.257812 254.660156 C 147.164062 253.929688 146.085938 253.167969 145.027344 252.382812 C 143.96875 251.597656 142.929688 250.789062 141.910156 249.953125 C 140.890625 249.117188 139.894531 248.253906 138.917969 247.371094 C 137.941406 246.484375 136.984375 245.574219 136.054688 244.644531 C 135.121094 243.710938 134.210938 242.757812 133.328125 241.78125 C 132.441406 240.804688 131.582031 239.804688 130.746094 238.785156 C 129.90625 237.769531 129.097656 236.730469 128.3125 235.671875 C 127.527344 234.609375 126.769531 233.535156 126.035156 232.4375 C 125.304688 231.339844 124.597656 230.226562 123.921875 229.097656 C 123.242188 227.964844 122.59375 226.820312 121.972656 225.65625 C 121.351562 224.496094 120.757812 223.316406 120.195312 222.125 C 119.628906 220.933594 119.097656 219.730469 118.59375 218.511719 C 118.085938 217.292969 117.613281 216.0625 117.167969 214.824219 C 116.726562 213.582031 116.3125 212.332031 115.929688 211.070312 C 115.546875 209.808594 115.195312 208.539062 114.875 207.257812 C 114.554688 205.980469 114.265625 204.695312 114.007812 203.402344 C 113.75 202.109375 113.527344 200.808594 113.332031 199.503906 C 113.140625 198.203125 112.976562 196.894531 112.847656 195.582031 C 112.71875 194.269531 112.621094 192.957031 112.558594 191.640625 C 112.492188 190.324219 112.460938 189.003906 112.460938 187.6875 C 112.460938 186.367188 112.492188 185.050781 112.558594 183.734375 C 112.621094 182.417969 112.71875 181.101562 112.847656 179.792969 C 112.976562 178.480469 113.140625 177.171875 113.332031 175.867188 C 113.527344 174.5625 113.75 173.265625 114.007812 171.972656 C 114.265625 170.679688 114.554688 169.394531 114.875 168.113281 C 115.195312 166.835938 115.546875 165.566406 115.929688 164.304688 C 116.3125 163.042969 116.726562 161.792969 117.167969 160.550781 C 117.613281 159.308594 118.085938 158.078125 118.59375 156.863281 C 119.097656 155.644531 119.628906 154.4375 120.195312 153.246094 C 120.757812 152.054688 121.351562 150.878906 121.972656 149.714844 C 122.59375 148.554688 123.242188 147.40625 123.921875 146.277344 C 124.597656 145.144531 125.304688 144.03125 126.035156 142.9375 C 126.769531 141.839844 127.527344 140.761719 128.3125 139.703125 C 129.097656 138.644531 129.90625 137.605469 130.746094 136.585938 C 131.582031 135.566406 132.441406 134.570312 133.328125 133.59375 C 134.210938 132.617188 135.121094 131.660156 136.054688 130.730469 C 136.984375 129.796875 137.941406 128.890625 138.917969 128.003906 C 139.894531 127.117188 140.890625 126.257812 141.910156 125.421875 C 142.929688 124.585938 143.96875 123.773438 145.027344 122.988281 C 146.085938 122.203125 147.164062 121.445312 148.257812 120.710938 C 149.355469 119.980469 150.46875 119.273438 151.597656 118.597656 C 152.730469 117.917969 153.875 117.269531 155.039062 116.648438 C 156.203125 116.027344 157.378906 115.433594 158.570312 114.871094 C 159.761719 114.308594 160.96875 113.773438 162.183594 113.269531 C 163.402344 112.765625 164.632812 112.289062 165.875 111.847656 C 167.113281 111.402344 168.367188 110.988281 169.628906 110.605469 C 170.890625 110.222656 172.160156 109.871094 173.4375 109.550781 C 174.71875 109.230469 176.003906 108.941406 177.296875 108.683594 C 178.589844 108.429688 179.886719 108.203125 181.191406 108.007812 C 182.496094 107.816406 183.804688 107.652344 185.113281 107.523438 C 186.425781 107.394531 187.742188 107.300781 189.058594 107.234375 C 190.375 107.167969 191.691406 107.136719 193.011719 107.136719 C 194.328125 107.136719 195.644531 107.167969 196.960938 107.234375 C 198.277344 107.300781 199.59375 107.394531 200.90625 107.523438 C 202.21875 107.652344 203.523438 107.816406 204.828125 108.007812 C 206.132812 108.203125 207.429688 108.429688 208.722656 108.683594 C 210.015625 108.941406 211.304688 109.230469 212.582031 109.550781 C 213.859375 109.871094 215.128906 110.222656 216.390625 110.605469 C 217.652344 110.988281 218.90625 111.402344 220.144531 111.847656 C 221.386719 112.289062 222.617188 112.765625 223.835938 113.269531 C 225.054688 113.773438 226.257812 114.308594 227.449219 114.871094 C 228.640625 115.433594 229.816406 116.027344 230.980469 116.648438 C 232.144531 117.269531 233.289062 117.917969 234.421875 118.597656 C 235.550781 119.273438 236.664062 119.980469 237.761719 120.710938 C 238.855469 121.445312 239.933594 122.203125 240.992188 122.988281 C 242.050781 123.773438 243.089844 124.585938 244.109375 125.421875 C 245.128906 126.257812 246.128906 127.117188 247.105469 128.003906 C 248.082031 128.890625 249.035156 129.796875 249.96875 130.730469 C 250.898438 131.660156 251.808594 132.617188 252.691406 133.59375 C 253.578125 134.570312 254.4375 135.566406 255.277344 136.585938 C 256.113281 137.605469 256.921875 138.644531 257.707031 139.703125 C 258.492188 140.761719 259.253906 141.839844 259.984375 142.9375 C 260.71875 144.03125 261.421875 145.144531 262.097656 146.277344 C 262.777344 147.40625 263.425781 148.554688 264.046875 149.714844 C 264.667969 150.878906 265.261719 152.054688 265.824219 153.246094 C 266.390625 154.4375 266.921875 155.644531 267.429688 156.863281 C 267.933594 158.078125 268.40625 159.308594 268.851562 160.550781 C 269.296875 161.792969 269.707031 163.042969 270.089844 164.304688 C 270.472656 165.566406 270.824219 166.835938 271.144531 168.113281 C 271.464844 169.394531 271.753906 170.679688 272.011719 171.972656 C 272.269531 173.265625 272.496094 174.5625 272.6875 175.867188 C 272.882812 177.171875 273.042969 178.480469 273.171875 179.792969 C 273.300781 181.101562 273.398438 182.417969 273.460938 183.734375 C 273.527344 185.050781 273.558594 186.367188 273.558594 187.6875 C 273.558594 189.003906 273.523438 190.320312 273.457031 191.636719 C 273.390625 192.953125 273.292969 194.269531 273.164062 195.578125 C 273.03125 196.890625 272.871094 198.199219 272.675781 199.5 C 272.480469 200.804688 272.253906 202.101562 271.996094 203.394531 C 271.738281 204.6875 271.449219 205.972656 271.128906 207.25 C 270.804688 208.527344 270.453125 209.796875 270.070312 211.058594 C 269.6875 212.320312 269.273438 213.570312 268.828125 214.8125 C 268.382812 216.050781 267.910156 217.28125 267.402344 218.496094 C 266.898438 219.714844 266.363281 220.917969 265.800781 222.109375 C 265.234375 223.300781 264.644531 224.476562 264.019531 225.640625 C 263.398438 226.800781 262.75 227.945312 262.070312 229.078125 C 261.394531 230.207031 260.6875 231.320312 259.957031 232.414062 C 259.222656 233.511719 258.464844 234.589844 257.679688 235.648438 C 256.894531 236.703125 256.082031 237.742188 255.246094 238.761719 C 254.410156 239.78125 253.550781 240.777344 252.664062 241.753906 C 251.78125 242.730469 250.871094 243.683594 249.941406 244.617188 C 249.007812 245.546875 248.054688 246.457031 247.078125 247.34375 C 246.101562 248.226562 245.105469 249.085938 244.085938 249.925781 C 243.066406 250.761719 242.027344 251.570312 240.96875 252.355469 C 239.910156 253.140625 238.835938 253.898438 237.738281 254.632812 C 236.644531 255.363281 235.53125 256.070312 234.402344 256.75 C 233.269531 257.425781 232.125 258.074219 230.960938 258.699219 C 229.800781 259.320312 228.625 259.914062 227.433594 260.476562 C 226.242188 261.039062 225.039062 261.574219 223.820312 262.078125 C 222.601562 262.585938 221.375 263.058594 220.132812 263.503906 C 218.894531 263.949219 217.644531 264.363281 216.382812 264.746094 C 215.121094 265.128906 213.851562 265.484375 212.574219 265.804688 C 211.296875 266.125 210.011719 266.414062 208.71875 266.671875 C 207.425781 266.929688 206.128906 267.15625 204.824219 267.351562 C 203.519531 267.546875 202.214844 267.710938 200.902344 267.839844 C 199.589844 267.96875 198.277344 268.070312 196.960938 268.132812 C 195.644531 268.199219 194.328125 268.234375 193.011719 268.234375 Z M 193.011719 268.234375 " fill-opacity="1" fill-rule="nonzero"/></svg>